<?xml version="1.0" encoding="UTF-8"?>
<!DOCTYPE svg PUBLIC "-//W3C//DTD SVG 1.1//EN" "http://www.w3.org/Graphics/SVG/1.1/DTD/svg11.dtd">
<!-- Creator: CorelDRAW X7 -->
<svg xmlns="http://www.w3.org/2000/svg" xml:space="preserve" width="88.9mm" height="51.5152mm" version="1.1" style="shape-rendering:geometricPrecision; text-rendering:geometricPrecision; image-rendering:optimizeQuality; fill-rule:evenodd; clip-rule:evenodd"
viewBox="0 0 8839 5122"
 xmlns:xlink="http://www.w3.org/1999/xlink">
 <defs>
  <style type="text/css">
   <![CDATA[
    .str4 {stroke:#2C6FE2;stroke-width:24.8558}
    .str0 {stroke:white;stroke-width:19.8847}
    .str1 {stroke:white;stroke-width:9.94234}
    .str3 {stroke:#2C6FE2;stroke-width:7.57606}
    .str2 {stroke:white;stroke-width:7.57606}
    .fil5 {fill:none}
    .fil7 {fill:none;fill-rule:nonzero}
    .fil4 {fill:#2C6FE2}
    .fil2 {fill:white}
    .fil8 {fill:#2C6FE2;fill-rule:nonzero}
    .fil6 {fill:white;fill-rule:nonzero}
    .fil9 {fill:url(#id0)}
    .fil1 {fill:url(#id1)}
    .fil3 {fill:url(#id2)}
    .fil0 {fill:url(#id3)}
   ]]>
  </style>
  <linearGradient id="id0" gradientUnits="userSpaceOnUse" x1="7113.83" y1="3217.34" x2="4816.32" y2="1904.47">
   <stop offset="0" style="stop-opacity:1; stop-color:#1B53CC"/>
   <stop offset="1" style="stop-opacity:0.529412; stop-color:#4499F4"/>
  </linearGradient>
  <linearGradient id="id1" gradientUnits="userSpaceOnUse" x1="8448.98" y1="3149.6" x2="6271.57" y2="1915.74">
   <stop offset="0" style="stop-opacity:0.356863; stop-color:#1B53CC"/>
   <stop offset="0.470588" style="stop-opacity:0.0862745; stop-color:#3076E0"/>
   <stop offset="1" style="stop-opacity:0.0862745; stop-color:#459AF5"/>
  </linearGradient>
  <linearGradient id="id2" gradientUnits="userSpaceOnUse" x1="2383.68" y1="2621.36" x2="1657.47" y2="2209.84">
   <stop offset="0" style="stop-opacity:1; stop-color:#1B53CC"/>
   <stop offset="0.470588" style="stop-opacity:1; stop-color:#3076E0"/>
   <stop offset="1" style="stop-opacity:1; stop-color:#459AF5"/>
  </linearGradient>
  <radialGradient id="id3" gradientUnits="userSpaceOnUse" gradientTransform="matrix(-2.33586 -0.698345 1.21201 -1.3459 -6 12)" cx="-0" cy="5.29927" r="1679.36" fx="-0" fy="5.29927">
   <stop offset="0" style="stop-opacity:0.839216; stop-color:#2A66E8"/>
   <stop offset="1" style="stop-opacity:1; stop-color:black"/>
  </radialGradient>
 </defs>
 <g id="Camada_x0020_1">
  <metadata id="CorelCorpID_0Corel-Layer"/>
  <rect class="fil0" y="5" width="8839" height="5093"/>
  <path class="fil1" d="M6149 1243c114,118 228,236 342,354 388,-6 777,-13 1002,-5 226,7 288,29 340,69 52,39 93,95 124,143 30,47 49,85 61,130 13,45 19,98 16,152 -3,55 -15,112 -38,168 -22,55 -56,108 -92,150 -37,41 -76,72 -119,93 -42,21 -87,32 -204,39 -117,6 -306,8 -494,9 345,427 689,853 1034,1280 150,-1 301,-2 451,-2 -262,-321 -523,-642 -784,-963 73,-24 145,-47 211,-81 65,-34 124,-79 174,-125 49,-46 89,-93 124,-161 36,-68 68,-157 89,-239 20,-81 29,-156 22,-238 -6,-82 -28,-171 -61,-253 -33,-81 -77,-156 -129,-221 -53,-65 -114,-120 -168,-160 -53,-39 -98,-63 -149,-83 -50,-21 -106,-38 -181,-48 -75,-9 -170,-11 -435,-11 -265,0 -701,2 -1136,3z"/>
  <path class="fil2 str0" d="M1100 1974c0,288 1,575 1,863 41,0 82,0 124,0 0,-191 1,-383 2,-574 193,191 387,382 580,573 6,0 13,0 19,0 1,-238 2,-476 3,-714 -42,-1 -84,-2 -126,-3 0,144 0,288 1,432 -197,-192 -393,-384 -590,-577 -5,0 -10,0 -14,0z"/>
  <path class="fil3" d="M1617 1986c38,39 76,78 114,118 129,-3 259,-5 334,-2 75,2 96,10 113,23 17,13 31,32 41,48 11,15 17,28 21,43 4,15 6,32 5,51 -1,18 -5,37 -12,56 -8,18 -19,36 -31,50 -12,13 -26,24 -40,31 -14,7 -29,11 -68,13 -39,2 -102,2 -165,3 115,142 230,284 345,427 50,-1 101,-1 151,-1 -88,-107 -175,-214 -262,-321 24,-8 49,-16 70,-27 22,-12 42,-27 59,-42 16,-15 29,-31 41,-54 12,-22 23,-52 30,-79 6,-28 9,-52 7,-80 -2,-27 -9,-57 -20,-84 -11,-27 -26,-52 -43,-74 -18,-21 -38,-40 -56,-53 -18,-13 -33,-21 -50,-28 -17,-7 -35,-13 -60,-16 -25,-3 -57,-3 -146,-3 -88,0 -233,0 -378,1z"/>
  <path class="fil4" d="M1972 2735c0,9 0,17 0,26 -16,7 -32,15 -48,22 16,8 33,17 49,25 0,8 -1,17 -1,26 -24,-14 -49,-27 -73,-40 -1,-8 -1,-15 -1,-23 24,-12 49,-24 74,-36z"/>
  <path class="fil4" d="M2037 2712c7,0 15,0 23,0 -17,48 -34,95 -50,143 -8,0 -16,0 -24,0 17,-48 34,-95 51,-143z"/>
  <path class="fil4" d="M2074 2733c0,9 0,18 0,28 17,7 33,14 49,22 -16,8 -32,16 -48,24 0,8 0,16 0,24 24,-12 49,-24 73,-36 1,-7 1,-15 2,-22 -25,-14 -51,-27 -76,-40z"/>
  <path class="fil5 str1" d="M2612 1889c1,337 3,675 6,844 3,169 8,169 12,169"/>
  <polygon class="fil6" points="2879,2413 2879,2262 2904,2262 3002,2380 3002,2262 3025,2262 3025,2413 3000,2413 2903,2295 2903,2413 "/>
  <path id="1" class="fil6" d="M3119 2413l0 -64 -72 -87 30 0 36 46c7,8 13,17 19,25 6,-8 13,-17 21,-26l36 -45 28 0 -74 87 0 64 -24 0z"/>
  <polygon id="2" class="fil6" points="3238,2413 3238,2262 3263,2262 3263,2337 3355,2262 3388,2262 3310,2323 3391,2413 3359,2413 3293,2337 3263,2361 3263,2413 "/>
  <path id="3" class="fil6" d="M3404 2364l23 -1c1,7 3,13 7,18 4,5 10,9 19,12 8,3 18,5 28,5 10,0 18,-2 25,-4 7,-2 13,-5 16,-9 4,-4 5,-8 5,-13 0,-5 -1,-9 -5,-12 -3,-4 -9,-7 -16,-9 -5,-2 -16,-4 -33,-8 -18,-3 -29,-6 -36,-9 -9,-4 -16,-8 -20,-14 -4,-6 -6,-12 -6,-19 0,-7 2,-15 8,-21 5,-7 13,-12 23,-15 10,-4 21,-5 34,-5 13,0 26,1 36,5 11,4 19,9 24,16 6,7 9,15 9,24l-23 1c-1,-9 -6,-17 -13,-21 -7,-5 -18,-8 -32,-8 -15,0 -26,3 -33,7 -6,4 -10,10 -10,16 0,5 3,10 7,13 5,4 17,7 37,11 20,4 34,7 41,10 11,4 19,9 24,15 5,6 8,13 8,21 0,8 -3,16 -9,23 -5,7 -13,12 -24,16 -10,4 -22,6 -36,6 -16,0 -30,-2 -42,-6 -11,-4 -20,-10 -26,-18 -7,-8 -10,-17 -10,-27z"/>
  <path id="4" class="fil6" d="M3577 2339c0,-25 8,-44 24,-58 17,-14 38,-21 64,-21 18,0 33,3 47,10 13,6 24,15 31,27 7,12 11,26 11,41 0,15 -4,29 -11,41 -8,12 -19,21 -33,27 -14,6 -29,9 -45,9 -17,0 -33,-3 -46,-10 -14,-7 -25,-16 -32,-28 -7,-12 -10,-24 -10,-38zm25 1c0,18 6,32 18,43 12,10 27,15 45,15 19,0 34,-5 46,-16 12,-10 18,-25 18,-44 0,-13 -3,-23 -8,-32 -5,-9 -13,-17 -22,-22 -10,-5 -21,-7 -33,-7 -18,0 -33,5 -45,14 -13,10 -19,26 -19,49z"/>
  <polygon id="5" class="fil6" points="3785,2413 3785,2262 3810,2262 3908,2380 3908,2262 3931,2262 3931,2413 3906,2413 3809,2295 3809,2413 "/>
  <polygon id="6" class="fil7 str2" points="2879,2413 2879,2262 2904,2262 3002,2380 3002,2262 3025,2262 3025,2413 3000,2413 2903,2295 2903,2413 "/>
  <path id="7" class="fil7 str2" d="M3119 2413l0 -64 -72 -87 30 0 36 46c7,8 13,17 19,25 6,-8 13,-17 21,-26l36 -45 28 0 -74 87 0 64 -24 0z"/>
  <polygon id="8" class="fil7 str2" points="3238,2413 3238,2262 3263,2262 3263,2337 3355,2262 3388,2262 3310,2323 3391,2413 3359,2413 3293,2337 3263,2361 3263,2413 "/>
  <path id="9" class="fil7 str2" d="M3404 2364l23 -1c1,7 3,13 7,18 4,5 10,9 19,12 8,3 18,5 28,5 10,0 18,-2 25,-4 7,-2 13,-5 16,-9 4,-4 5,-8 5,-13 0,-5 -1,-9 -5,-12 -3,-4 -9,-7 -16,-9 -5,-2 -16,-4 -33,-8 -18,-3 -29,-6 -36,-9 -9,-4 -16,-8 -20,-14 -4,-6 -6,-12 -6,-19 0,-7 2,-15 8,-21 5,-7 13,-12 23,-15 10,-4 21,-5 34,-5 13,0 26,1 36,5 11,4 19,9 24,16 6,7 9,15 9,24l-23 1c-1,-9 -6,-17 -13,-21 -7,-5 -18,-8 -32,-8 -15,0 -26,3 -33,7 -6,4 -10,10 -10,16 0,5 3,10 7,13 5,4 17,7 37,11 20,4 34,7 41,10 11,4 19,9 24,15 5,6 8,13 8,21 0,8 -3,16 -9,23 -5,7 -13,12 -24,16 -10,4 -22,6 -36,6 -16,0 -30,-2 -42,-6 -11,-4 -20,-10 -26,-18 -7,-8 -10,-17 -10,-27z"/>
  <path id="10" class="fil7 str2" d="M3577 2339c0,-25 8,-44 24,-58 17,-14 38,-21 64,-21 18,0 33,3 47,10 13,6 24,15 31,27 7,12 11,26 11,41 0,15 -4,29 -11,41 -8,12 -19,21 -33,27 -14,6 -29,9 -45,9 -17,0 -33,-3 -46,-10 -14,-7 -25,-16 -32,-28 -7,-12 -10,-24 -10,-38zm25 1c0,18 6,32 18,43 12,10 27,15 45,15 19,0 34,-5 46,-16 12,-10 18,-25 18,-44 0,-13 -3,-23 -8,-32 -5,-9 -13,-17 -22,-22 -10,-5 -21,-7 -33,-7 -18,0 -33,5 -45,14 -13,10 -19,26 -19,49z"/>
  <polygon id="11" class="fil7 str2" points="3785,2413 3785,2262 3810,2262 3908,2380 3908,2262 3931,2262 3931,2413 3906,2413 3809,2295 3809,2413 "/>
  <path class="fil8" d="M4263 2406l0 -150 85 0c18,0 31,1 39,4 9,2 17,7 22,14 5,7 8,14 8,23 0,10 -5,19 -13,27 -9,7 -23,12 -41,14 6,2 12,5 15,7 7,5 15,12 21,20l33 41 -31 0 -26 -31c-7,-9 -13,-16 -18,-21 -5,-5 -9,-8 -13,-10 -4,-2 -8,-3 -12,-4 -3,0 -7,-1 -14,-1l-29 0 0 67 -26 0zm26 -84l54 0c12,0 21,-1 28,-3 6,-2 11,-5 14,-9 4,-4 5,-8 5,-13 0,-7 -3,-13 -9,-18 -7,-5 -17,-7 -31,-7l-61 0 0 50z"/>
  <path id="1" class="fil8" d="M4582 2256l26 0 0 87c0,15 -2,27 -7,36 -4,8 -12,16 -23,21 -12,6 -27,9 -45,9 -18,0 -33,-3 -44,-8 -12,-4 -20,-11 -25,-21 -4,-9 -7,-21 -7,-37l0 -87 26 0 0 87c0,13 1,22 4,28 3,7 9,11 16,15 8,3 17,5 28,5 18,0 32,-4 40,-10 7,-7 11,-20 11,-38l0 -87z"/>
  <polygon id="2" class="fil8" points="4699,2406 4699,2273 4636,2273 4636,2256 4788,2256 4788,2273 4725,2273 4725,2406 "/>
  <path id="3" class="fil8" d="M4868 2406l0 -64 -74 -86 31 0 38 45c7,9 13,17 19,25 6,-7 13,-16 22,-26l37 -44 30 0 -77 86 0 64 -26 0z"/>
  <polygon id="4" class="fil8" points="4994,2406 4994,2256 5132,2256 5132,2273 5019,2273 5019,2320 5125,2320 5125,2337 5019,2337 5019,2388 5137,2388 5137,2406 "/>
  <polygon id="5" class="fil8" points="5171,2406 5171,2256 5197,2256 5197,2388 5291,2388 5291,2406 "/>
  <polygon id="6" class="fil8" points="5320,2406 5320,2256 5346,2256 5346,2388 5440,2388 5440,2406 "/>
  <path id="7" class="fil8" d="M5505 2406l0 -64 -74 -86 30 0 38 45c7,9 14,17 20,25 6,-7 13,-16 21,-26l37 -44 30 0 -77 86 0 64 -25 0z"/>
  <path id="8" class="fil7 str3" d="M4263 2406l0 -150 85 0c18,0 31,1 39,4 9,2 17,7 22,14 5,7 8,14 8,23 0,10 -5,19 -13,27 -9,7 -23,12 -41,14 6,2 12,5 15,7 7,5 15,12 21,20l33 41 -31 0 -26 -31c-7,-9 -13,-16 -18,-21 -5,-5 -9,-8 -13,-10 -4,-2 -8,-3 -12,-4 -3,0 -7,-1 -14,-1l-29 0 0 67 -26 0zm26 -84l54 0c12,0 21,-1 28,-3 6,-2 11,-5 14,-9 4,-4 5,-8 5,-13 0,-7 -3,-13 -9,-18 -7,-5 -17,-7 -31,-7l-61 0 0 50z"/>
  <path id="9" class="fil7 str3" d="M4582 2256l26 0 0 87c0,15 -2,27 -7,36 -4,8 -12,16 -23,21 -12,6 -27,9 -45,9 -18,0 -33,-3 -44,-8 -12,-4 -20,-11 -25,-21 -4,-9 -7,-21 -7,-37l0 -87 26 0 0 87c0,13 1,22 4,28 3,7 9,11 16,15 8,3 17,5 28,5 18,0 32,-4 40,-10 7,-7 11,-20 11,-38l0 -87z"/>
  <polygon id="10" class="fil7 str3" points="4699,2406 4699,2273 4636,2273 4636,2256 4788,2256 4788,2273 4725,2273 4725,2406 "/>
  <path id="11" class="fil7 str3" d="M4868 2406l0 -64 -74 -86 31 0 38 45c7,9 13,17 19,25 6,-7 13,-16 22,-26l37 -44 30 0 -77 86 0 64 -26 0z"/>
  <polygon id="12" class="fil7 str3" points="4994,2406 4994,2256 5132,2256 5132,2273 5019,2273 5019,2320 5125,2320 5125,2337 5019,2337 5019,2388 5137,2388 5137,2406 "/>
  <polygon id="13" class="fil7 str3" points="5171,2406 5171,2256 5197,2256 5197,2388 5291,2388 5291,2406 "/>
  <polygon id="14" class="fil7 str3" points="5320,2406 5320,2256 5346,2256 5346,2388 5440,2388 5440,2406 "/>
  <path id="15" class="fil7 str3" d="M5505 2406l0 -64 -74 -86 30 0 38 45c7,9 14,17 20,25 6,-7 13,-16 21,-26l37 -44 30 0 -77 86 0 64 -25 0z"/>
  <path class="fil5 str4" d="M3021 2586c96,0 192,0 239,0 48,0 48,0 48,0 0,0 0,0 0,0"/>
  <path class="fil5 str4" d="M5491 2586c-95,0 -190,0 -285,0"/>
  <path class="fil6" d="M3377 2608l12 -1c1,5 2,9 4,12 2,3 5,5 10,7 4,2 9,3 15,3 5,0 9,-1 13,-2 3,-2 6,-4 8,-6 2,-3 3,-5 3,-8 0,-3 -1,-6 -3,-8 -2,-2 -5,-4 -9,-5 -2,-1 -8,-3 -17,-5 -9,-2 -15,-4 -19,-6 -4,-2 -8,-5 -10,-9 -2,-3 -3,-7 -3,-11 0,-5 1,-9 4,-14 3,-4 7,-7 12,-9 5,-2 11,-3 18,-3 7,0 13,1 19,3 5,2 9,5 12,10 3,4 5,9 5,15l-12 1c-1,-6 -3,-11 -7,-14 -4,-3 -9,-4 -17,-4 -8,0 -13,1 -17,4 -3,3 -5,6 -5,10 0,3 1,6 4,8 2,2 9,5 19,7 10,2 18,4 21,6 6,2 10,5 13,9 3,4 4,9 4,14 0,5 -1,9 -4,14 -3,4 -8,8 -13,10 -6,3 -12,4 -19,4 -9,0 -16,-1 -22,-4 -6,-2 -10,-6 -14,-11 -3,-5 -5,-10 -5,-17z"/>
  <polygon id="1" class="fil6" points="3474,2638 3474,2544 3486,2544 3486,2638 "/>
  <path id="2" class="fil6" d="M3505 2608l12 -1c0,4 2,8 4,11 2,3 5,6 10,8 4,1 9,2 14,2 5,0 10,0 13,-2 4,-1 7,-3 9,-6 2,-2 3,-5 3,-8 0,-3 -1,-5 -3,-8 -2,-2 -5,-4 -9,-5 -2,-1 -8,-3 -17,-5 -9,-2 -15,-4 -19,-5 -4,-3 -8,-6 -10,-9 -2,-4 -4,-7 -4,-12 0,-5 2,-9 5,-13 2,-4 6,-7 12,-10 5,-2 11,-3 18,-3 7,0 13,1 19,3 5,3 9,6 12,10 3,5 5,10 5,15l-12 1c-1,-6 -3,-10 -7,-13 -4,-3 -9,-5 -17,-5 -8,0 -13,2 -17,4 -3,3 -5,6 -5,10 0,4 1,6 4,9 2,2 8,4 19,6 10,3 17,5 21,6 6,3 10,6 13,10 3,4 4,8 4,13 0,5 -2,10 -5,14 -3,5 -7,8 -12,11 -6,2 -12,3 -19,3 -9,0 -16,-1 -22,-3 -6,-3 -10,-6 -14,-11 -3,-5 -5,-11 -5,-17z"/>
  <polygon id="3" class="fil6" points="3624,2637 3624,2554 3592,2554 3592,2543 3669,2543 3669,2554 3637,2554 3637,2637 "/>
  <polygon id="4" class="fil6" points="3682,2637 3682,2543 3752,2543 3752,2554 3695,2554 3695,2583 3749,2583 3749,2594 3695,2594 3695,2626 3755,2626 3755,2637 "/>
  <path id="5" class="fil6" d="M3772 2637l0 -94 19 0 23 66c2,6 4,11 5,14 1,-3 3,-8 5,-15l23 -66 17 0 0 94 -12 0 0 -78 -28 79 -12 0 -28 -80 0 80 -12 0z"/>
  <path id="6" class="fil6" d="M3874 2636l38 -94 14 0 39 94 -15 0 -11 -28 -41 0 -10 28 -14 0zm28 -38l33 -1 -10 -26c-3,-8 -5,-14 -7,-19 -1,6 -3,12 -5,18l-11 28z"/>
  <path id="7" class="fil6" d="M3971 2606l12 -1c1,4 2,8 4,11 2,3 5,6 10,8 4,1 9,2 15,2 5,0 9,0 13,-2 3,-1 6,-3 8,-6 2,-2 3,-5 3,-8 0,-3 -1,-5 -3,-8 -2,-2 -5,-4 -9,-5 -2,-1 -8,-3 -17,-5 -9,-2 -15,-4 -19,-5 -4,-3 -8,-6 -10,-9 -2,-4 -3,-7 -3,-12 0,-5 1,-9 4,-13 3,-4 7,-7 12,-10 5,-2 11,-3 18,-3 7,0 13,1 19,3 5,3 10,6 12,10 3,5 5,9 5,15l-12 1c-1,-6 -3,-10 -7,-13 -4,-3 -9,-5 -17,-5 -7,0 -13,2 -17,4 -3,3 -5,6 -5,10 0,4 1,6 4,9 2,2 9,4 19,6 11,3 18,4 22,6 5,3 9,6 12,10 3,4 4,8 4,13 0,5 -1,10 -4,14 -3,5 -8,8 -13,11 -6,2 -12,3 -19,3 -8,0 -16,-1 -22,-3 -6,-3 -10,-6 -14,-11 -3,-5 -5,-11 -5,-17z"/>
  <path id="8" class="fil6" d="M4103 2635l0 -94 37 0c6,0 11,0 14,1 5,1 9,2 12,4 4,2 6,5 8,9 2,4 3,8 3,13 0,8 -2,15 -8,20 -5,6 -14,9 -28,9l-25 0 0 38 -13 0zm13 -49l25 0c8,0 14,-2 18,-5 3,-3 5,-7 5,-13 0,-3 -1,-7 -3,-10 -2,-2 -5,-4 -8,-5 -2,-1 -6,-1 -12,-1l-25 0 0 34z"/>
  <path id="9" class="fil6" d="M4173 2635l37 -94 14 0 39 94 -14 0 -11 -29 -41 0 -11 29 -13 0zm28 -39l33 0 -10 -26c-4,-8 -6,-14 -7,-20 -2,7 -4,13 -6,19l-10 27z"/>
  <path id="10" class="fil6" d="M4274 2635l0 -95 43 0c8,0 15,1 20,3 4,1 8,4 10,9 3,4 4,9 4,14 0,6 -2,12 -6,17 -5,4 -12,7 -21,9 3,1 6,3 8,4 4,3 7,8 10,13l17 25 -16 0 -13 -19c-3,-6 -6,-10 -9,-13 -2,-3 -5,-5 -6,-6 -2,-2 -4,-2 -6,-3 -2,0 -4,0 -7,0l-15 0 0 42 -13 0zm13 -53l27 0c6,0 11,-1 14,-2 3,-1 6,-3 7,-6 2,-2 3,-5 3,-8 0,-5 -2,-8 -5,-11 -3,-3 -8,-4 -16,-4l-30 0 0 31z"/>
  <path id="11" class="fil6" d="M4361 2634l37 -94 14 0 39 94 -14 0 -11 -29 -41 1 -11 28 -13 0zm28 -39l33 0 -10 -26c-4,-8 -6,-14 -7,-19 -2,6 -4,12 -6,18l-10 27z"/>
  <polygon id="12" class="fil6" points="4494,2634 4494,2540 4507,2539 4507,2634 "/>
  <polygon id="13" class="fil6" points="4529,2633 4529,2539 4542,2539 4593,2613 4593,2539 4606,2539 4606,2633 4592,2633 4542,2560 4542,2633 "/>
  <polygon id="14" class="fil6" points="4652,2633 4652,2550 4620,2550 4620,2539 4697,2539 4697,2550 4665,2550 4665,2633 "/>
  <polygon id="15" class="fil6" points="4710,2633 4710,2539 4780,2538 4780,2549 4723,2550 4723,2578 4776,2578 4776,2589 4723,2590 4723,2622 4782,2621 4782,2632 "/>
  <path id="16" class="fil6" d="M4800 2632l0 -94 43 0c9,0 15,1 20,2 4,2 8,5 11,9 2,5 4,9 4,14 0,7 -2,13 -7,17 -4,5 -11,8 -21,9 4,2 6,3 8,5 4,3 7,7 11,12l17 26 -16 0 -13 -20c-4,-5 -7,-10 -9,-12 -3,-3 -5,-6 -7,-7 -2,-1 -4,-2 -6,-2 -1,-1 -4,-1 -7,-1l-15 0 0 42 -13 0zm13 -52l28 0c6,-1 10,-1 13,-2 4,-1 6,-3 8,-6 2,-3 2,-5 2,-8 0,-5 -1,-9 -4,-11 -4,-3 -9,-5 -16,-5l-31 0 0 32z"/>
  <polygon id="17" class="fil6" points="4898,2632 4898,2538 4911,2538 4962,2611 4962,2537 4974,2537 4974,2632 4961,2632 4910,2558 4910,2632 "/>
  <polygon id="18" class="fil6" points="4996,2631 4996,2537 5066,2537 5066,2548 5009,2548 5009,2577 5062,2577 5062,2588 5009,2588 5009,2620 5068,2620 5068,2631 "/>
  <polygon id="19" class="fil6" points="5110,2631 5110,2548 5078,2548 5078,2537 5155,2537 5155,2548 5123,2548 5123,2631 "/>
  <path id="20" class="fil7 str2" d="M3377 2608l12 -1c1,5 2,9 4,12 2,3 5,5 10,7 4,2 9,3 15,3 5,0 9,-1 13,-2 3,-2 6,-4 8,-6 2,-3 3,-5 3,-8 0,-3 -1,-6 -3,-8 -2,-2 -5,-4 -9,-5 -2,-1 -8,-3 -17,-5 -9,-2 -15,-4 -19,-6 -4,-2 -8,-5 -10,-9 -2,-3 -3,-7 -3,-11 0,-5 1,-9 4,-14 3,-4 7,-7 12,-9 5,-2 11,-3 18,-3 7,0 13,1 19,3 5,2 9,5 12,10 3,4 5,9 5,15l-12 1c-1,-6 -3,-11 -7,-14 -4,-3 -9,-4 -17,-4 -8,0 -13,1 -17,4 -3,3 -5,6 -5,10 0,3 1,6 4,8 2,2 9,5 19,7 10,2 18,4 21,6 6,2 10,5 13,9 3,4 4,9 4,14 0,5 -1,9 -4,14 -3,4 -8,8 -13,10 -6,3 -12,4 -19,4 -9,0 -16,-1 -22,-4 -6,-2 -10,-6 -14,-11 -3,-5 -5,-10 -5,-17z"/>
  <polygon id="21" class="fil7 str2" points="3474,2638 3474,2544 3486,2544 3486,2638 "/>
  <path id="22" class="fil7 str2" d="M3505 2608l12 -1c0,4 2,8 4,11 2,3 5,6 10,8 4,1 9,2 14,2 5,0 10,0 13,-2 4,-1 7,-3 9,-6 2,-2 3,-5 3,-8 0,-3 -1,-5 -3,-8 -2,-2 -5,-4 -9,-5 -2,-1 -8,-3 -17,-5 -9,-2 -15,-4 -19,-5 -4,-3 -8,-6 -10,-9 -2,-4 -4,-7 -4,-12 0,-5 2,-9 5,-13 2,-4 6,-7 12,-10 5,-2 11,-3 18,-3 7,0 13,1 19,3 5,3 9,6 12,10 3,5 5,10 5,15l-12 1c-1,-6 -3,-10 -7,-13 -4,-3 -9,-5 -17,-5 -8,0 -13,2 -17,4 -3,3 -5,6 -5,10 0,4 1,6 4,9 2,2 8,4 19,6 10,3 17,5 21,6 6,3 10,6 13,10 3,4 4,8 4,13 0,5 -2,10 -5,14 -3,5 -7,8 -12,11 -6,2 -12,3 -19,3 -9,0 -16,-1 -22,-3 -6,-3 -10,-6 -14,-11 -3,-5 -5,-11 -5,-17z"/>
  <polygon id="23" class="fil7 str2" points="3624,2637 3624,2554 3592,2554 3592,2543 3669,2543 3669,2554 3637,2554 3637,2637 "/>
  <polygon id="24" class="fil7 str2" points="3682,2637 3682,2543 3752,2543 3752,2554 3695,2554 3695,2583 3749,2583 3749,2594 3695,2594 3695,2626 3755,2626 3755,2637 "/>
  <path id="25" class="fil7 str2" d="M3772 2637l0 -94 19 0 23 66c2,6 4,11 5,14 1,-3 3,-8 5,-15l23 -66 17 0 0 94 -12 0 0 -78 -28 79 -12 0 -28 -80 0 80 -12 0z"/>
  <path id="26" class="fil7 str2" d="M3874 2636l38 -94 14 0 39 94 -15 0 -11 -28 -41 0 -10 28 -14 0zm28 -38l33 -1 -10 -26c-3,-8 -5,-14 -7,-19 -1,6 -3,12 -5,18l-11 28z"/>
  <path id="27" class="fil7 str2" d="M3971 2606l12 -1c1,4 2,8 4,11 2,3 5,6 10,8 4,1 9,2 15,2 5,0 9,0 13,-2 3,-1 6,-3 8,-6 2,-2 3,-5 3,-8 0,-3 -1,-5 -3,-8 -2,-2 -5,-4 -9,-5 -2,-1 -8,-3 -17,-5 -9,-2 -15,-4 -19,-5 -4,-3 -8,-6 -10,-9 -2,-4 -3,-7 -3,-12 0,-5 1,-9 4,-13 3,-4 7,-7 12,-10 5,-2 11,-3 18,-3 7,0 13,1 19,3 5,3 10,6 12,10 3,5 5,9 5,15l-12 1c-1,-6 -3,-10 -7,-13 -4,-3 -9,-5 -17,-5 -7,0 -13,2 -17,4 -3,3 -5,6 -5,10 0,4 1,6 4,9 2,2 9,4 19,6 11,3 18,4 22,6 5,3 9,6 12,10 3,4 4,8 4,13 0,5 -1,10 -4,14 -3,5 -8,8 -13,11 -6,2 -12,3 -19,3 -8,0 -16,-1 -22,-3 -6,-3 -10,-6 -14,-11 -3,-5 -5,-11 -5,-17z"/>
  <path id="28" class="fil7 str2" d="M4103 2635l0 -94 37 0c6,0 11,0 14,1 5,1 9,2 12,4 4,2 6,5 8,9 2,4 3,8 3,13 0,8 -2,15 -8,20 -5,6 -14,9 -28,9l-25 0 0 38 -13 0zm13 -49l25 0c8,0 14,-2 18,-5 3,-3 5,-7 5,-13 0,-3 -1,-7 -3,-10 -2,-2 -5,-4 -8,-5 -2,-1 -6,-1 -12,-1l-25 0 0 34z"/>
  <path id="29" class="fil7 str2" d="M4173 2635l37 -94 14 0 39 94 -14 0 -11 -29 -41 0 -11 29 -13 0zm28 -39l33 0 -10 -26c-4,-8 -6,-14 -7,-20 -2,7 -4,13 -6,19l-10 27z"/>
  <path id="30" class="fil7 str2" d="M4274 2635l0 -95 43 0c8,0 15,1 20,3 4,1 8,4 10,9 3,4 4,9 4,14 0,6 -2,12 -6,17 -5,4 -12,7 -21,9 3,1 6,3 8,4 4,3 7,8 10,13l17 25 -16 0 -13 -19c-3,-6 -6,-10 -9,-13 -2,-3 -5,-5 -6,-6 -2,-2 -4,-2 -6,-3 -2,0 -4,0 -7,0l-15 0 0 42 -13 0zm13 -53l27 0c6,0 11,-1 14,-2 3,-1 6,-3 7,-6 2,-2 3,-5 3,-8 0,-5 -2,-8 -5,-11 -3,-3 -8,-4 -16,-4l-30 0 0 31z"/>
  <path id="31" class="fil7 str2" d="M4361 2634l37 -94 14 0 39 94 -14 0 -11 -29 -41 1 -11 28 -13 0zm28 -39l33 0 -10 -26c-4,-8 -6,-14 -7,-19 -2,6 -4,12 -6,18l-10 27z"/>
  <polygon id="32" class="fil7 str2" points="4494,2634 4494,2540 4507,2539 4507,2634 "/>
  <polygon id="33" class="fil7 str2" points="4529,2633 4529,2539 4542,2539 4593,2613 4593,2539 4606,2539 4606,2633 4592,2633 4542,2560 4542,2633 "/>
  <polygon id="34" class="fil7 str2" points="4652,2633 4652,2550 4620,2550 4620,2539 4697,2539 4697,2550 4665,2550 4665,2633 "/>
  <polygon id="35" class="fil7 str2" points="4710,2633 4710,2539 4780,2538 4780,2549 4723,2550 4723,2578 4776,2578 4776,2589 4723,2590 4723,2622 4782,2621 4782,2632 "/>
  <path id="36" class="fil7 str2" d="M4800 2632l0 -94 43 0c9,0 15,1 20,2 4,2 8,5 11,9 2,5 4,9 4,14 0,7 -2,13 -7,17 -4,5 -11,8 -21,9 4,2 6,3 8,5 4,3 7,7 11,12l17 26 -16 0 -13 -20c-4,-5 -7,-10 -9,-12 -3,-3 -5,-6 -7,-7 -2,-1 -4,-2 -6,-2 -1,-1 -4,-1 -7,-1l-15 0 0 42 -13 0zm13 -52l28 0c6,-1 10,-1 13,-2 4,-1 6,-3 8,-6 2,-3 2,-5 2,-8 0,-5 -1,-9 -4,-11 -4,-3 -9,-5 -16,-5l-31 0 0 32z"/>
  <polygon id="37" class="fil7 str2" points="4898,2632 4898,2538 4911,2538 4962,2611 4962,2537 4974,2537 4974,2632 4961,2632 4910,2558 4910,2632 "/>
  <polygon id="38" class="fil7 str2" points="4996,2631 4996,2537 5066,2537 5066,2548 5009,2548 5009,2577 5062,2577 5062,2588 5009,2588 5009,2620 5068,2620 5068,2631 "/>
  <polygon id="39" class="fil7 str2" points="5110,2631 5110,2548 5078,2548 5078,2537 5155,2537 5155,2548 5123,2548 5123,2631 "/>
  <path class="fil9" d="M5447 7c329,724 658,1449 811,1883 152,434 128,577 -50,1067 -178,490 -508,1327 -839,2165 66,-4 132,-7 198,-11 298,-714 597,-1427 784,-1921 186,-493 261,-765 173,-1162 -88,-397 -338,-918 -508,-1277 -171,-358 -260,-555 -349,-751 -74,2 -147,4 -220,7z"/>
 </g>
</svg>
