<?xml version="1.0" encoding="UTF-8"?>
<!DOCTYPE svg PUBLIC "-//W3C//DTD SVG 1.1//EN" "http://www.w3.org/Graphics/SVG/1.1/DTD/svg11.dtd">
<!-- Creator: CorelDRAW X7 -->
<svg xmlns="http://www.w3.org/2000/svg" xml:space="preserve" width="60.0557mm" height="40.0819mm" version="1.1" style="shape-rendering:geometricPrecision; text-rendering:geometricPrecision; image-rendering:optimizeQuality; fill-rule:evenodd; clip-rule:evenodd"
viewBox="0 0 6091 4065"
 xmlns:xlink="http://www.w3.org/1999/xlink">
 <defs>
  <style type="text/css">
   <![CDATA[
    .str1 {stroke:#2C6FE2;stroke-width:20.2837}
    .str0 {stroke:white;stroke-width:20.2837}
    .fil0 {fill:black}
    .fil2 {fill:#2C6FE2}
    .fil1 {fill:url(#id0)}
   ]]>
  </style>
  <linearGradient id="id0" gradientUnits="userSpaceOnUse" x1="5903.01" y1="2981.63" x2="2570.4" y2="1093.16">
   <stop offset="0" style="stop-opacity:1; stop-color:#1B53CC"/>
   <stop offset="0.470588" style="stop-opacity:1; stop-color:#3076E0"/>
   <stop offset="1" style="stop-opacity:1; stop-color:#459AF5"/>
  </linearGradient>
 </defs>
 <g id="Camada_x0020_1">
  <metadata id="CorelCorpID_0Corel-Layer"/>
  <path class="fil0 str0" d="M10 10c2,1321 5,2641 7,3962 189,0 378,0 567,0 3,-879 7,-1757 10,-2635 888,877 1775,1754 2663,2631 29,0 58,0 87,0 5,-1092 9,-2184 14,-3277 -193,-5 -386,-10 -580,-16 2,662 3,1324 4,1986 -902,-883 -1804,-1766 -2705,-2649 -23,-1 -45,-1 -67,-2z"/>
  <path class="fil1" d="M2383 64c174,181 349,361 523,542 595,-10 1190,-20 1534,-9 345,12 440,46 520,106 79,60 143,146 189,219 47,72 76,130 95,199 19,69 28,149 23,233 -4,84 -22,172 -57,256 -34,85 -86,166 -142,230 -56,64 -116,111 -181,143 -65,32 -134,49 -313,59 -179,10 -467,12 -756,14 528,653 1056,1306 1583,1959 230,-1 460,-2 690,-3 -400,-491 -800,-983 -1199,-1474 110,-36 221,-72 322,-124 100,-52 191,-121 266,-191 76,-70 136,-142 191,-246 55,-104 104,-240 135,-366 31,-125 45,-239 35,-364 -10,-125 -44,-262 -94,-387 -50,-125 -117,-239 -198,-339 -80,-99 -174,-184 -256,-245 -82,-60 -151,-96 -228,-127 -77,-31 -162,-58 -277,-73 -116,-14 -261,-16 -667,-16 -406,0 -1072,2 -1738,4z"/>
  <path class="fil2 str1" d="M4012 3505c1,39 2,78 3,116 -74,34 -148,68 -222,102 75,38 150,76 225,114 -1,40 -2,79 -3,119 -113,-61 -226,-123 -338,-184 -2,-35 -3,-69 -5,-104 114,-54 227,-108 340,-163z"/>
  <path class="fil2 str1" d="M4311 3397c35,1 70,1 104,2 -76,218 -152,436 -228,654 -36,1 -72,1 -109,2 78,-219 156,-439 233,-658z"/>
  <path class="fil2 str1" d="M4482 3495c1,41 2,83 2,125 75,34 149,69 223,103 -73,37 -146,75 -219,112 0,37 0,74 0,111 111,-56 222,-111 333,-166 3,-35 6,-70 9,-104 -116,-61 -232,-121 -348,-181z"/>
 </g>
</svg>
