<?xml version="1.0" encoding="UTF-8"?>
<!DOCTYPE svg PUBLIC "-//W3C//DTD SVG 1.1//EN" "http://www.w3.org/Graphics/SVG/1.1/DTD/svg11.dtd">
<!-- Creator: CorelDRAW X7 -->
<svg xmlns="http://www.w3.org/2000/svg" xml:space="preserve" width="60.0557mm" height="40.0819mm" version="1.1" style="shape-rendering:geometricPrecision; text-rendering:geometricPrecision; image-rendering:optimizeQuality; fill-rule:evenodd; clip-rule:evenodd"
viewBox="0 0 4064 2712"
 xmlns:xlink="http://www.w3.org/1999/xlink">
 <defs>
  <style type="text/css">
   <![CDATA[
    .str1 {stroke:#2C6FE2;stroke-width:13.5325}
    .str0 {stroke:white;stroke-width:13.5325}
    .fil2 {fill:#2C6FE2}
    .fil0 {fill:white}
    .fil1 {fill:url(#id0)}
   ]]>
  </style>
  <linearGradient id="id0" gradientUnits="userSpaceOnUse" x1="3938.27" y1="1989.23" x2="1714.88" y2="729.313">
   <stop offset="0" style="stop-opacity:1; stop-color:#1B53CC"/>
   <stop offset="0.470588" style="stop-opacity:1; stop-color:#3076E0"/>
   <stop offset="1" style="stop-opacity:1; stop-color:#459AF5"/>
  </linearGradient>
 </defs>
 <g id="Camada_x0020_1">
  <metadata id="CorelCorpID_0Corel-Layer"/>
  <path class="fil0 str0" d="M7 7c1,881 3,1762 4,2643 126,0 252,0 378,0 3,-586 5,-1172 7,-1758 593,585 1185,1170 1777,1756 19,0 39,0 58,0 3,-729 6,-1458 9,-2187 -129,-3 -258,-7 -386,-11 0,442 1,884 2,1325 -602,-589 -1203,-1178 -1805,-1767 -15,0 -29,-1 -44,-1z"/>
  <path class="fil1" d="M1590 43c116,120 232,241 349,361 397,-7 793,-13 1024,-5 230,7 293,30 346,70 53,40 95,98 126,146 31,48 51,87 63,133 13,46 19,100 16,156 -3,55 -15,114 -38,170 -23,57 -57,111 -95,153 -37,43 -77,74 -120,96 -44,21 -90,33 -209,39 -120,7 -312,8 -505,10 352,436 705,871 1057,1307 153,-1 306,-2 460,-2 -267,-328 -534,-656 -800,-984 73,-24 147,-48 214,-83 67,-34 128,-80 178,-127 51,-47 91,-95 127,-164 37,-69 70,-160 91,-244 21,-83 30,-160 23,-243 -7,-84 -29,-175 -63,-258 -33,-84 -78,-160 -132,-226 -54,-67 -116,-123 -171,-164 -54,-40 -100,-64 -152,-85 -51,-20 -108,-38 -185,-48 -77,-10 -174,-11 -444,-11 -271,0 -716,1 -1160,3z"/>
  <path class="fil2 str1" d="M2677 2339c0,25 1,51 1,77 -49,23 -98,45 -147,68 50,26 100,51 150,76 -1,27 -2,53 -3,79 -75,-41 -150,-82 -225,-122 -1,-24 -2,-47 -3,-70 76,-36 151,-72 227,-108z"/>
  <path class="fil2 str1" d="M2876 2267c24,0 47,0 70,1 -51,145 -102,291 -152,436 -25,0 -49,1 -73,1 52,-146 104,-292 155,-438z"/>
  <path class="fil2 str1" d="M2991 2331c0,28 0,56 1,84 49,23 99,46 148,69 -48,25 -97,50 -146,75 0,24 0,49 0,73 74,-37 148,-73 223,-110 1,-23 3,-47 5,-70 -77,-40 -154,-80 -231,-121z"/>
 </g>
</svg>
