<?xml version="1.0" encoding="UTF-8"?>
<!DOCTYPE svg PUBLIC "-//W3C//DTD SVG 1.1//EN" "http://www.w3.org/Graphics/SVG/1.1/DTD/svg11.dtd">
<!-- Creator: CorelDRAW X7 -->
<svg xmlns="http://www.w3.org/2000/svg" xml:space="preserve" width="4.55207cm" height="1.02359cm" version="1.1" style="shape-rendering:geometricPrecision; text-rendering:geometricPrecision; image-rendering:optimizeQuality; fill-rule:evenodd; clip-rule:evenodd"
viewBox="0 0 3070 690"
 xmlns:xlink="http://www.w3.org/1999/xlink">
 <defs>
  <style type="text/css">
   <![CDATA[
    .str4 {stroke:#2C6FE2;stroke-width:16.8603}
    .str0 {stroke:white;stroke-width:13.4882}
    .str1 {stroke:white;stroke-width:6.74411}
    .str3 {stroke:#2C6FE2;stroke-width:5.13901}
    .str2 {stroke:white;stroke-width:5.13901}
    .fil3 {fill:none}
    .fil5 {fill:none;fill-rule:nonzero}
    .fil2 {fill:#2C6FE2}
    .fil0 {fill:white}
    .fil6 {fill:#2C6FE2;fill-rule:nonzero}
    .fil4 {fill:white;fill-rule:nonzero}
    .fil1 {fill:url(#id0)}
   ]]>
  </style>
  <linearGradient id="id0" gradientUnits="userSpaceOnUse" x1="877.793" y1="496.892" x2="385.19" y2="217.754">
   <stop offset="0" style="stop-opacity:1; stop-color:#1B53CC"/>
   <stop offset="0.470588" style="stop-opacity:1; stop-color:#3076E0"/>
   <stop offset="1" style="stop-opacity:1; stop-color:#459AF5"/>
  </linearGradient>
 </defs>
 <g id="Camada_x0020_1">
  <metadata id="CorelCorpID_0Corel-Layer"/>
  <path class="fil0 str0" d="M7 58c0,195 0,390 1,585 28,0 56,0 84,0 0,-130 1,-259 1,-389 131,129 262,259 394,389 4,0 8,0 13,0 0,-162 1,-323 2,-485 -29,0 -58,-1 -86,-2 0,98 0,196 0,293 -133,-130 -266,-261 -399,-391 -4,0 -7,0 -10,0z"/>
  <path class="fil1" d="M357 66c26,26 52,53 78,80 88,-2 176,-3 227,-2 51,2 65,7 76,16 12,9 22,22 28,32 7,11 12,20 14,30 3,10 4,22 4,34 -1,13 -3,26 -9,38 -5,13 -12,25 -21,34 -8,10 -17,17 -26,21 -10,5 -20,8 -47,9 -26,1 -69,2 -111,2 78,97 156,193 234,290 34,0 68,-1 102,-1 -60,-72 -119,-145 -178,-218 17,-5 33,-10 48,-18 15,-8 28,-18 39,-28 11,-11 20,-21 28,-37 9,-15 16,-35 20,-54 5,-18 7,-35 6,-54 -2,-18 -7,-38 -14,-57 -8,-18 -18,-35 -30,-50 -11,-14 -25,-27 -37,-36 -12,-9 -23,-14 -34,-19 -11,-4 -24,-8 -41,-11 -17,-2 -39,-2 -99,-2 -60,0 -158,0 -257,1z"/>
  <path class="fil2" d="M598 574c0,6 1,12 1,17 -11,5 -22,11 -33,16 11,5 22,11 33,16 0,6 0,12 0,18 -17,-9 -34,-18 -50,-27 -1,-5 -1,-11 -1,-16 17,-8 34,-16 50,-24z"/>
  <path class="fil2" d="M643 558c5,0 10,0 15,1 -11,32 -23,64 -34,96 -5,0 -11,0 -16,1 12,-33 23,-65 35,-98z"/>
  <path class="fil2" d="M668 573c0,6 0,12 0,18 11,5 22,10 33,15 -11,6 -22,11 -32,17 0,5 0,11 0,16 16,-8 32,-16 49,-24 0,-5 1,-10 1,-16 -17,-8 -34,-17 -51,-26z"/>
  <path class="fil3 str1" d="M1032 0c1,229 2,458 5,572 2,115 5,115 8,115"/>
  <polygon class="fil4" points="1214,355 1214,253 1231,253 1297,333 1297,253 1313,253 1313,355 1296,355 1230,275 1230,355 "/>
  <path id="1" class="fil4" d="M1376 355l0 -43 -48 -59 20 0 25 31c4,6 9,12 13,17 3,-5 8,-11 13,-18l25 -30 19 0 -50 59 0 43 -17 0z"/>
  <polygon id="2" class="fil4" points="1457,355 1457,253 1474,253 1474,304 1536,253 1559,253 1506,295 1561,355 1539,355 1495,304 1474,320 1474,355 "/>
  <path id="3" class="fil4" d="M1570 323l15 -2c1,6 3,10 5,13 3,3 7,6 13,8 6,2 12,3 19,3 7,0 12,-1 17,-2 5,-2 9,-4 11,-7 2,-2 4,-5 4,-8 0,-3 -2,-6 -4,-9 -2,-2 -6,-4 -11,-6 -4,-1 -11,-2 -23,-5 -11,-2 -19,-4 -24,-6 -6,-3 -10,-6 -13,-10 -3,-3 -5,-8 -5,-12 0,-5 2,-10 6,-15 3,-4 9,-8 16,-10 6,-2 14,-3 23,-3 9,0 17,1 24,3 7,3 13,6 17,11 3,5 6,10 6,16l-16 1c-1,-6 -4,-11 -9,-15 -5,-3 -12,-4 -22,-4 -10,0 -17,1 -22,4 -4,3 -7,7 -7,11 0,4 2,7 5,9 3,2 12,5 25,7 14,3 23,5 28,7 7,2 13,6 16,10 4,4 5,9 5,15 0,5 -1,10 -5,15 -4,5 -10,8 -17,11 -7,3 -15,4 -24,4 -11,0 -21,-1 -28,-4 -8,-3 -14,-7 -18,-12 -5,-5 -7,-12 -7,-18z"/>
  <path id="4" class="fil4" d="M1687 306c0,-17 6,-31 17,-40 11,-10 26,-14 43,-14 12,0 22,2 32,6 9,5 16,11 21,19 5,8 7,17 7,27 0,11 -2,20 -7,28 -6,8 -13,15 -22,19 -10,4 -20,6 -31,6 -12,0 -22,-2 -32,-7 -9,-5 -16,-11 -21,-19 -5,-8 -7,-16 -7,-25zm17 0c0,12 4,22 12,29 9,7 19,11 31,11 13,0 23,-4 31,-11 8,-7 12,-17 12,-31 0,-8 -2,-15 -5,-21 -4,-6 -9,-11 -15,-15 -7,-3 -14,-5 -23,-5 -11,0 -22,4 -30,10 -9,7 -13,18 -13,33z"/>
  <polygon id="5" class="fil4" points="1828,355 1828,253 1846,253 1912,333 1912,253 1927,253 1927,355 1910,355 1844,275 1844,355 "/>
  <polygon id="6" class="fil5 str2" points="1214,355 1214,253 1231,253 1297,333 1297,253 1313,253 1313,355 1296,355 1230,275 1230,355 "/>
  <path id="7" class="fil5 str2" d="M1376 355l0 -43 -48 -59 20 0 25 31c4,6 9,12 13,17 3,-5 8,-11 13,-18l25 -30 19 0 -50 59 0 43 -17 0z"/>
  <polygon id="8" class="fil5 str2" points="1457,355 1457,253 1474,253 1474,304 1536,253 1559,253 1506,295 1561,355 1539,355 1495,304 1474,320 1474,355 "/>
  <path id="9" class="fil5 str2" d="M1570 323l15 -2c1,6 3,10 5,13 3,3 7,6 13,8 6,2 12,3 19,3 7,0 12,-1 17,-2 5,-2 9,-4 11,-7 2,-2 4,-5 4,-8 0,-3 -2,-6 -4,-9 -2,-2 -6,-4 -11,-6 -4,-1 -11,-2 -23,-5 -11,-2 -19,-4 -24,-6 -6,-3 -10,-6 -13,-10 -3,-3 -5,-8 -5,-12 0,-5 2,-10 6,-15 3,-4 9,-8 16,-10 6,-2 14,-3 23,-3 9,0 17,1 24,3 7,3 13,6 17,11 3,5 6,10 6,16l-16 1c-1,-6 -4,-11 -9,-15 -5,-3 -12,-4 -22,-4 -10,0 -17,1 -22,4 -4,3 -7,7 -7,11 0,4 2,7 5,9 3,2 12,5 25,7 14,3 23,5 28,7 7,2 13,6 16,10 4,4 5,9 5,15 0,5 -1,10 -5,15 -4,5 -10,8 -17,11 -7,3 -15,4 -24,4 -11,0 -21,-1 -28,-4 -8,-3 -14,-7 -18,-12 -5,-5 -7,-12 -7,-18z"/>
  <path id="10" class="fil5 str2" d="M1687 306c0,-17 6,-31 17,-40 11,-10 26,-14 43,-14 12,0 22,2 32,6 9,5 16,11 21,19 5,8 7,17 7,27 0,11 -2,20 -7,28 -6,8 -13,15 -22,19 -10,4 -20,6 -31,6 -12,0 -22,-2 -32,-7 -9,-5 -16,-11 -21,-19 -5,-8 -7,-16 -7,-25zm17 0c0,12 4,22 12,29 9,7 19,11 31,11 13,0 23,-4 31,-11 8,-7 12,-17 12,-31 0,-8 -2,-15 -5,-21 -4,-6 -9,-11 -15,-15 -7,-3 -14,-5 -23,-5 -11,0 -22,4 -30,10 -9,7 -13,18 -13,33z"/>
  <polygon id="11" class="fil5 str2" points="1828,355 1828,253 1846,253 1912,333 1912,253 1927,253 1927,355 1910,355 1844,275 1844,355 "/>
  <path class="fil6" d="M2153 351l0 -102 58 0c11,0 20,1 26,3 6,1 11,5 14,9 4,5 6,10 6,16 0,7 -3,13 -9,18 -6,5 -15,8 -28,9 5,2 8,4 11,6 5,3 9,8 14,13l22 28 -21 0 -17 -21c-5,-6 -10,-11 -13,-14 -3,-4 -6,-6 -9,-7 -2,-2 -5,-2 -7,-3 -2,0 -6,0 -10,0l-20 0 0 45 -17 0zm17 -57l37 0c8,0 14,-1 19,-2 4,-1 7,-3 10,-6 2,-3 3,-6 3,-9 0,-5 -2,-9 -7,-12 -4,-3 -11,-5 -21,-5l-41 0 0 34z"/>
  <path id="1" class="fil6" d="M2369 249l18 0 0 59c0,10 -2,18 -5,24 -3,6 -8,11 -16,15 -8,4 -18,6 -30,6 -12,0 -22,-2 -30,-5 -8,-4 -13,-8 -17,-15 -3,-6 -5,-14 -5,-25l0 -59 18 0 0 59c0,9 1,15 3,19 2,5 5,8 10,10 6,2 12,4 19,4 13,0 22,-3 27,-7 6,-5 8,-13 8,-26l0 -59z"/>
  <polygon id="2" class="fil6" points="2448,351 2448,261 2405,261 2405,249 2509,249 2509,261 2466,261 2466,351 "/>
  <path id="3" class="fil6" d="M2563 351l0 -43 -50 -59 21 0 25 31c5,5 10,11 14,17 4,-5 9,-11 14,-18l25 -30 21 0 -53 59 0 43 -17 0z"/>
  <polygon id="4" class="fil6" points="2648,351 2648,249 2742,249 2742,261 2666,261 2666,292 2737,292 2737,304 2666,304 2666,339 2745,339 2745,351 "/>
  <polygon id="5" class="fil6" points="2769,351 2769,249 2786,249 2786,339 2850,339 2850,351 "/>
  <polygon id="6" class="fil6" points="2870,351 2870,249 2887,249 2887,339 2951,339 2951,351 "/>
  <path id="7" class="fil6" d="M2995 351l0 -43 -50 -59 20 0 26 31c5,5 9,11 14,17 3,-5 8,-11 14,-18l25 -30 20 0 -52 59 0 43 -17 0z"/>
  <path id="8" class="fil5 str3" d="M2153 351l0 -102 58 0c11,0 20,1 26,3 6,1 11,5 14,9 4,5 6,10 6,16 0,7 -3,13 -9,18 -6,5 -15,8 -28,9 5,2 8,4 11,6 5,3 9,8 14,13l22 28 -21 0 -17 -21c-5,-6 -10,-11 -13,-14 -3,-4 -6,-6 -9,-7 -2,-2 -5,-2 -7,-3 -2,0 -6,0 -10,0l-20 0 0 45 -17 0zm17 -57l37 0c8,0 14,-1 19,-2 4,-1 7,-3 10,-6 2,-3 3,-6 3,-9 0,-5 -2,-9 -7,-12 -4,-3 -11,-5 -21,-5l-41 0 0 34z"/>
  <path id="9" class="fil5 str3" d="M2369 249l18 0 0 59c0,10 -2,18 -5,24 -3,6 -8,11 -16,15 -8,4 -18,6 -30,6 -12,0 -22,-2 -30,-5 -8,-4 -13,-8 -17,-15 -3,-6 -5,-14 -5,-25l0 -59 18 0 0 59c0,9 1,15 3,19 2,5 5,8 10,10 6,2 12,4 19,4 13,0 22,-3 27,-7 6,-5 8,-13 8,-26l0 -59z"/>
  <polygon id="10" class="fil5 str3" points="2448,351 2448,261 2405,261 2405,249 2509,249 2509,261 2466,261 2466,351 "/>
  <path id="11" class="fil5 str3" d="M2563 351l0 -43 -50 -59 21 0 25 31c5,5 10,11 14,17 4,-5 9,-11 14,-18l25 -30 21 0 -53 59 0 43 -17 0z"/>
  <polygon id="12" class="fil5 str3" points="2648,351 2648,249 2742,249 2742,261 2666,261 2666,292 2737,292 2737,304 2666,304 2666,339 2745,339 2745,351 "/>
  <polygon id="13" class="fil5 str3" points="2769,351 2769,249 2786,249 2786,339 2850,339 2850,351 "/>
  <polygon id="14" class="fil5 str3" points="2870,351 2870,249 2887,249 2887,339 2951,339 2951,351 "/>
  <path id="15" class="fil5 str3" d="M2995 351l0 -43 -50 -59 20 0 26 31c5,5 9,11 14,17 3,-5 8,-11 14,-18l25 -30 20 0 -52 59 0 43 -17 0z"/>
  <path class="fil3 str4" d="M1310 473c65,0 130,0 163,0 32,0 32,0 32,0 0,0 0,0 0,0"/>
  <path class="fil3 str4" d="M2986 473c-65,0 -129,0 -194,0"/>
  <path class="fil4" d="M1552 488l8 -1c0,3 1,6 2,8 2,2 4,4 7,5 3,1 6,2 10,2 3,0 6,-1 9,-2 2,0 4,-2 6,-3 1,-2 1,-4 1,-6 0,-2 0,-4 -1,-5 -2,-2 -4,-3 -6,-4 -2,-1 -6,-2 -12,-3 -6,-1 -10,-3 -13,-4 -3,-2 -5,-3 -7,-6 -1,-2 -2,-5 -2,-8 0,-3 1,-6 3,-9 2,-3 4,-5 8,-6 4,-2 8,-2 12,-3 5,0 9,1 13,3 4,1 7,3 9,6 2,3 3,7 3,10l-8 1c-1,-4 -2,-7 -5,-9 -3,-2 -6,-3 -11,-3 -6,0 -10,1 -12,3 -2,2 -4,4 -4,7 0,2 1,4 3,5 2,2 6,3 13,5 7,1 12,3 15,4 3,1 6,4 8,6 2,3 3,6 3,9 0,4 -1,7 -3,10 -2,3 -5,5 -9,7 -4,2 -8,2 -12,2 -6,0 -11,0 -15,-2 -4,-2 -8,-4 -10,-8 -2,-3 -3,-7 -3,-11z"/>
  <polygon id="1" class="fil4" points="1617,508 1617,444 1626,444 1626,508 "/>
  <path id="2" class="fil4" d="M1638 488l8 -1c1,3 2,6 3,8 2,2 4,3 7,5 3,1 6,2 10,2 3,0 6,-1 9,-2 2,-1 4,-2 5,-4 2,-2 2,-3 2,-5 0,-2 0,-4 -2,-6 -1,-1 -3,-2 -6,-3 -1,-1 -5,-2 -11,-3 -6,-2 -10,-3 -13,-4 -3,-2 -5,-4 -7,-6 -1,-3 -2,-5 -2,-8 0,-3 1,-6 3,-9 2,-3 4,-5 8,-7 3,-1 7,-2 12,-2 5,0 9,1 13,2 4,2 6,4 8,7 2,3 3,6 4,10l-9 1c0,-4 -2,-7 -4,-9 -3,-2 -7,-3 -12,-3 -5,0 -9,1 -11,2 -3,2 -4,5 -4,7 0,3 1,4 3,6 1,1 6,3 13,4 7,2 12,3 14,4 4,2 7,4 9,7 2,2 3,5 3,9 0,3 -1,6 -3,9 -2,4 -5,6 -9,8 -4,1 -8,2 -13,2 -6,0 -11,-1 -15,-2 -4,-2 -7,-5 -9,-8 -2,-3 -4,-7 -4,-11z"/>
  <polygon id="3" class="fil4" points="1719,508 1719,451 1697,452 1697,444 1749,444 1749,451 1728,451 1728,508 "/>
  <polygon id="4" class="fil4" points="1759,508 1759,444 1806,444 1806,451 1767,451 1767,471 1804,471 1804,478 1767,478 1767,500 1808,500 1808,507 "/>
  <path id="5" class="fil4" d="M1820 507l0 -63 13 -1 15 46c2,4 3,7 3,9 1,-2 2,-6 4,-10l16 -45 11 0 0 64 -8 0 0 -53 -19 53 -8 0 -19 -54 0 54 -8 0z"/>
  <path id="6" class="fil4" d="M1889 507l25 -64 10 0 26 64 -9 0 -8 -20 -28 1 -7 19 -9 0zm19 -26l22 0 -7 -18c-2,-5 -3,-10 -4,-13 -1,4 -2,8 -4,12l-7 19z"/>
  <path id="7" class="fil4" d="M1955 486l8 0c0,3 1,5 2,7 2,2 4,4 7,5 3,2 6,2 10,2 3,0 6,0 9,-1 2,-1 4,-3 6,-4 1,-2 1,-4 1,-6 0,-2 0,-3 -1,-5 -2,-1 -4,-3 -6,-4 -2,0 -6,-1 -12,-3 -6,-1 -10,-2 -13,-4 -3,-1 -5,-3 -7,-6 -1,-2 -2,-5 -2,-8 0,-3 1,-6 3,-9 2,-2 4,-5 8,-6 4,-1 8,-2 12,-2 5,0 9,0 13,2 4,1 7,4 9,7 2,3 3,6 3,10l-9 0c0,-4 -1,-7 -4,-9 -3,-2 -6,-3 -11,-3 -6,0 -10,1 -12,3 -2,2 -4,4 -4,7 0,2 1,4 3,6 2,1 6,3 13,4 7,2 12,3 15,4 3,2 6,4 8,6 2,3 3,6 3,10 0,3 -1,6 -3,9 -2,3 -5,5 -9,7 -4,2 -8,3 -12,3 -6,0 -11,-1 -15,-3 -4,-1 -8,-4 -10,-7 -2,-4 -3,-7 -3,-12z"/>
  <path id="8" class="fil4" d="M2044 506l0 -63 25 -1c4,0 8,1 10,1 3,0 6,1 8,3 2,1 4,3 5,6 2,3 2,6 2,9 0,5 -1,10 -5,14 -4,3 -10,5 -19,5l-17 0 0 26 -9 0zm9 -33l17 0c5,0 9,-1 12,-3 2,-2 3,-5 3,-9 0,-3 0,-5 -2,-7 -1,-2 -3,-3 -5,-4 -2,0 -4,0 -8,0l-17 0 0 23z"/>
  <path id="9" class="fil4" d="M2091 506l26 -64 9 0 27 64 -10 0 -8 -19 -27 0 -7 19 -10 0zm19 -26l23 0 -7 -18c-2,-5 -4,-10 -5,-13 -1,4 -2,8 -4,12l-7 19z"/>
  <path id="10" class="fil4" d="M2160 506l0 -64 29 0c6,0 10,0 13,2 4,1 6,3 8,6 2,2 2,6 2,9 0,5 -1,9 -4,12 -3,3 -8,5 -14,6 2,1 4,2 5,3 3,2 5,5 7,8l12 18 -11 0 -9 -14c-2,-3 -4,-6 -6,-8 -2,-2 -3,-4 -4,-5 -2,0 -3,-1 -4,-1 -1,0 -3,-1 -5,-1l-10 0 0 29 -9 0zm9 -36l18 0c4,0 7,0 10,-1 2,-1 4,-2 5,-4 1,-2 1,-4 1,-6 0,-3 -1,-5 -3,-7 -2,-2 -6,-3 -11,-3l-20 0 0 21z"/>
  <path id="11" class="fil4" d="M2219 506l25 -64 10 0 26 63 -9 0 -8 -19 -28 0 -7 20 -9 0zm19 -27l22 0 -7 -17c-2,-6 -3,-10 -4,-14 -1,4 -2,8 -4,13l-7 18z"/>
  <polygon id="12" class="fil4" points="2309,505 2309,441 2318,441 2318,505 "/>
  <polygon id="13" class="fil4" points="2333,505 2333,441 2342,441 2377,491 2377,441 2385,441 2385,505 2376,505 2342,455 2342,505 "/>
  <polygon id="14" class="fil4" points="2416,505 2416,448 2395,448 2395,441 2447,441 2447,448 2425,448 2425,505 "/>
  <polygon id="15" class="fil4" points="2456,505 2456,441 2503,441 2503,448 2465,448 2465,468 2501,468 2501,475 2465,475 2465,497 2505,497 2505,504 "/>
  <path id="16" class="fil4" d="M2517 504l0 -64 29 0c6,0 11,1 14,2 3,1 5,3 7,6 2,3 3,6 3,10 0,4 -2,8 -5,11 -3,3 -8,5 -14,6 2,1 4,2 5,3 3,2 5,5 8,9l11 17 -11 0 -9 -13c-2,-4 -4,-7 -6,-9 -2,-2 -3,-3 -4,-4 -2,-1 -3,-2 -4,-2 -1,0 -3,0 -5,0l-10 0 0 28 -9 0zm9 -35l18 0c4,-1 8,-1 10,-2 2,-1 4,-2 5,-4 1,-1 2,-3 2,-5 0,-3 -2,-6 -4,-8 -2,-2 -6,-3 -10,-3l-21 0 0 22z"/>
  <polygon id="17" class="fil4" points="2583,504 2583,440 2592,440 2627,490 2627,440 2635,440 2635,504 2626,504 2591,454 2591,504 "/>
  <polygon id="18" class="fil4" points="2650,504 2650,440 2697,440 2697,447 2658,447 2658,467 2695,467 2695,474 2658,474 2658,496 2699,496 2699,504 "/>
  <polygon id="19" class="fil4" points="2727,503 2727,447 2706,447 2706,440 2758,439 2758,447 2736,447 2736,503 "/>
  <path id="20" class="fil5 str2" d="M1552 488l8 -1c0,3 1,6 2,8 2,2 4,4 7,5 3,1 6,2 10,2 3,0 6,-1 9,-2 2,0 4,-2 6,-3 1,-2 1,-4 1,-6 0,-2 0,-4 -1,-5 -2,-2 -4,-3 -6,-4 -2,-1 -6,-2 -12,-3 -6,-1 -10,-3 -13,-4 -3,-2 -5,-3 -7,-6 -1,-2 -2,-5 -2,-8 0,-3 1,-6 3,-9 2,-3 4,-5 8,-6 4,-2 8,-2 12,-3 5,0 9,1 13,3 4,1 7,3 9,6 2,3 3,7 3,10l-8 1c-1,-4 -2,-7 -5,-9 -3,-2 -6,-3 -11,-3 -6,0 -10,1 -12,3 -2,2 -4,4 -4,7 0,2 1,4 3,5 2,2 6,3 13,5 7,1 12,3 15,4 3,1 6,4 8,6 2,3 3,6 3,9 0,4 -1,7 -3,10 -2,3 -5,5 -9,7 -4,2 -8,2 -12,2 -6,0 -11,0 -15,-2 -4,-2 -8,-4 -10,-8 -2,-3 -3,-7 -3,-11z"/>
  <polygon id="21" class="fil5 str2" points="1617,508 1617,444 1626,444 1626,508 "/>
  <path id="22" class="fil5 str2" d="M1638 488l8 -1c1,3 2,6 3,8 2,2 4,3 7,5 3,1 6,2 10,2 3,0 6,-1 9,-2 2,-1 4,-2 5,-4 2,-2 2,-3 2,-5 0,-2 0,-4 -2,-6 -1,-1 -3,-2 -6,-3 -1,-1 -5,-2 -11,-3 -6,-2 -10,-3 -13,-4 -3,-2 -5,-4 -7,-6 -1,-3 -2,-5 -2,-8 0,-3 1,-6 3,-9 2,-3 4,-5 8,-7 3,-1 7,-2 12,-2 5,0 9,1 13,2 4,2 6,4 8,7 2,3 3,6 4,10l-9 1c0,-4 -2,-7 -4,-9 -3,-2 -7,-3 -12,-3 -5,0 -9,1 -11,2 -3,2 -4,5 -4,7 0,3 1,4 3,6 1,1 6,3 13,4 7,2 12,3 14,4 4,2 7,4 9,7 2,2 3,5 3,9 0,3 -1,6 -3,9 -2,4 -5,6 -9,8 -4,1 -8,2 -13,2 -6,0 -11,-1 -15,-2 -4,-2 -7,-5 -9,-8 -2,-3 -4,-7 -4,-11z"/>
  <polygon id="23" class="fil5 str2" points="1719,508 1719,451 1697,452 1697,444 1749,444 1749,451 1728,451 1728,508 "/>
  <polygon id="24" class="fil5 str2" points="1759,508 1759,444 1806,444 1806,451 1767,451 1767,471 1804,471 1804,478 1767,478 1767,500 1808,500 1808,507 "/>
  <path id="25" class="fil5 str2" d="M1820 507l0 -63 13 -1 15 46c2,4 3,7 3,9 1,-2 2,-6 4,-10l16 -45 11 0 0 64 -8 0 0 -53 -19 53 -8 0 -19 -54 0 54 -8 0z"/>
  <path id="26" class="fil5 str2" d="M1889 507l25 -64 10 0 26 64 -9 0 -8 -20 -28 1 -7 19 -9 0zm19 -26l22 0 -7 -18c-2,-5 -3,-10 -4,-13 -1,4 -2,8 -4,12l-7 19z"/>
  <path id="27" class="fil5 str2" d="M1955 486l8 0c0,3 1,5 2,7 2,2 4,4 7,5 3,2 6,2 10,2 3,0 6,0 9,-1 2,-1 4,-3 6,-4 1,-2 1,-4 1,-6 0,-2 0,-3 -1,-5 -2,-1 -4,-3 -6,-4 -2,0 -6,-1 -12,-3 -6,-1 -10,-2 -13,-4 -3,-1 -5,-3 -7,-6 -1,-2 -2,-5 -2,-8 0,-3 1,-6 3,-9 2,-2 4,-5 8,-6 4,-1 8,-2 12,-2 5,0 9,0 13,2 4,1 7,4 9,7 2,3 3,6 3,10l-9 0c0,-4 -1,-7 -4,-9 -3,-2 -6,-3 -11,-3 -6,0 -10,1 -12,3 -2,2 -4,4 -4,7 0,2 1,4 3,6 2,1 6,3 13,4 7,2 12,3 15,4 3,2 6,4 8,6 2,3 3,6 3,10 0,3 -1,6 -3,9 -2,3 -5,5 -9,7 -4,2 -8,3 -12,3 -6,0 -11,-1 -15,-3 -4,-1 -8,-4 -10,-7 -2,-4 -3,-7 -3,-12z"/>
  <path id="28" class="fil5 str2" d="M2044 506l0 -63 25 -1c4,0 8,1 10,1 3,0 6,1 8,3 2,1 4,3 5,6 2,3 2,6 2,9 0,5 -1,10 -5,14 -4,3 -10,5 -19,5l-17 0 0 26 -9 0zm9 -33l17 0c5,0 9,-1 12,-3 2,-2 3,-5 3,-9 0,-3 0,-5 -2,-7 -1,-2 -3,-3 -5,-4 -2,0 -4,0 -8,0l-17 0 0 23z"/>
  <path id="29" class="fil5 str2" d="M2091 506l26 -64 9 0 27 64 -10 0 -8 -19 -27 0 -7 19 -10 0zm19 -26l23 0 -7 -18c-2,-5 -4,-10 -5,-13 -1,4 -2,8 -4,12l-7 19z"/>
  <path id="30" class="fil5 str2" d="M2160 506l0 -64 29 0c6,0 10,0 13,2 4,1 6,3 8,6 2,2 2,6 2,9 0,5 -1,9 -4,12 -3,3 -8,5 -14,6 2,1 4,2 5,3 3,2 5,5 7,8l12 18 -11 0 -9 -14c-2,-3 -4,-6 -6,-8 -2,-2 -3,-4 -4,-5 -2,0 -3,-1 -4,-1 -1,0 -3,-1 -5,-1l-10 0 0 29 -9 0zm9 -36l18 0c4,0 7,0 10,-1 2,-1 4,-2 5,-4 1,-2 1,-4 1,-6 0,-3 -1,-5 -3,-7 -2,-2 -6,-3 -11,-3l-20 0 0 21z"/>
  <path id="31" class="fil5 str2" d="M2219 506l25 -64 10 0 26 63 -9 0 -8 -19 -28 0 -7 20 -9 0zm19 -27l22 0 -7 -17c-2,-6 -3,-10 -4,-14 -1,4 -2,8 -4,13l-7 18z"/>
  <polygon id="32" class="fil5 str2" points="2309,505 2309,441 2318,441 2318,505 "/>
  <polygon id="33" class="fil5 str2" points="2333,505 2333,441 2342,441 2377,491 2377,441 2385,441 2385,505 2376,505 2342,455 2342,505 "/>
  <polygon id="34" class="fil5 str2" points="2416,505 2416,448 2395,448 2395,441 2447,441 2447,448 2425,448 2425,505 "/>
  <polygon id="35" class="fil5 str2" points="2456,505 2456,441 2503,441 2503,448 2465,448 2465,468 2501,468 2501,475 2465,475 2465,497 2505,497 2505,504 "/>
  <path id="36" class="fil5 str2" d="M2517 504l0 -64 29 0c6,0 11,1 14,2 3,1 5,3 7,6 2,3 3,6 3,10 0,4 -2,8 -5,11 -3,3 -8,5 -14,6 2,1 4,2 5,3 3,2 5,5 8,9l11 17 -11 0 -9 -13c-2,-4 -4,-7 -6,-9 -2,-2 -3,-3 -4,-4 -2,-1 -3,-2 -4,-2 -1,0 -3,0 -5,0l-10 0 0 28 -9 0zm9 -35l18 0c4,-1 8,-1 10,-2 2,-1 4,-2 5,-4 1,-1 2,-3 2,-5 0,-3 -2,-6 -4,-8 -2,-2 -6,-3 -10,-3l-21 0 0 22z"/>
  <polygon id="37" class="fil5 str2" points="2583,504 2583,440 2592,440 2627,490 2627,440 2635,440 2635,504 2626,504 2591,454 2591,504 "/>
  <polygon id="38" class="fil5 str2" points="2650,504 2650,440 2697,440 2697,447 2658,447 2658,467 2695,467 2695,474 2658,474 2658,496 2699,496 2699,504 "/>
  <polygon id="39" class="fil5 str2" points="2727,503 2727,447 2706,447 2706,440 2758,439 2758,447 2736,447 2736,503 "/>
 </g>
</svg>
