<?xml version="1.0" encoding="UTF-8"?>
<!DOCTYPE svg PUBLIC "-//W3C//DTD SVG 1.1//EN" "http://www.w3.org/Graphics/SVG/1.1/DTD/svg11.dtd">
<!-- Creator: CorelDRAW X7 -->
<svg xmlns="http://www.w3.org/2000/svg" xml:space="preserve" width="153.023mm" height="121.273mm" version="1.1" style="shape-rendering:geometricPrecision; text-rendering:geometricPrecision; image-rendering:optimizeQuality; fill-rule:evenodd; clip-rule:evenodd"
viewBox="0 0 14392 11406"
 xmlns:xlink="http://www.w3.org/1999/xlink">
 <defs>
  <style type="text/css">
   <![CDATA[
    .str5 {stroke:#2C6FE2;stroke-width:23.513}
    .str0 {stroke:black;stroke-width:18.8104}
    .str2 {stroke:#2C6FE2;stroke-width:18.8104}
    .str1 {stroke:white;stroke-width:18.8104}
    .str4 {stroke:#2C6FE2;stroke-width:7.16677}
    .str3 {stroke:white;stroke-width:7.16677}
    .fil7 {fill:none}
    .fil5 {fill:none;fill-rule:nonzero}
    .fil0 {fill:black}
    .fil3 {fill:#2C6FE2}
    .fil1 {fill:white}
    .fil6 {fill:#2C6FE2;fill-rule:nonzero}
    .fil4 {fill:white;fill-rule:nonzero}
    .fil2 {fill:url(#id0)}
   ]]>
  </style>
  <linearGradient id="id0" gradientUnits="userSpaceOnUse" x1="10024.1" y1="5233.26" x2="6933.52" y2="3481.95">
   <stop offset="0" style="stop-opacity:1; stop-color:#1B53CC"/>
   <stop offset="0.470588" style="stop-opacity:1; stop-color:#3076E0"/>
   <stop offset="1" style="stop-opacity:1; stop-color:#459AF5"/>
  </linearGradient>
 </defs>
 <g id="Camada_x0020_1">
  <metadata id="CorelCorpID_0Corel-Layer"/>
  <g id="_2578680048096">
   <rect class="fil0 str0" x="9" y="9" width="14373" height="11387"/>
   <g>
    <path class="fil1 str1" d="M4559 2478c2,1224 4,2449 6,3673 176,0 351,0 526,0 3,-814 6,-1629 10,-2443 823,813 1646,1627 2469,2440 27,0 54,0 81,0 4,-1013 8,-2026 13,-3039 -179,-5 -358,-10 -538,-15 1,614 3,1228 4,1842 -837,-819 -1673,-1638 -2509,-2457 -21,0 -41,-1 -62,-1z"/>
    <path class="fil2" d="M6759 2528c162,167 324,334 486,502 551,-9 1103,-19 1423,-8 320,11 408,42 481,98 74,56 133,136 176,203 43,67 70,121 88,185 17,64 26,138 22,216 -5,78 -21,159 -53,238 -32,78 -80,153 -132,212 -52,60 -108,103 -168,133 -60,30 -124,46 -290,55 -166,9 -434,11 -701,13 489,606 979,1211 1468,1817 213,-1 426,-2 639,-3 -370,-456 -741,-912 -1112,-1367 103,-34 205,-67 299,-115 93,-49 177,-112 247,-178 70,-65 126,-131 177,-227 51,-97 96,-223 125,-339 29,-117 42,-222 32,-338 -9,-117 -40,-243 -87,-359 -46,-116 -109,-222 -183,-314 -75,-93 -162,-171 -238,-227 -75,-56 -140,-90 -211,-119 -72,-29 -150,-54 -257,-67 -107,-14 -242,-16 -618,-16 -377,0 -995,2 -1613,5z"/>
    <path class="fil3 str2" d="M8270 5719c1,36 2,72 3,107 -69,32 -137,64 -205,95 69,35 138,71 208,106 -1,37 -2,73 -3,110 -105,-57 -209,-114 -314,-171 -1,-32 -2,-64 -3,-96 105,-50 209,-101 314,-151z"/>
    <path class="fil3 str2" d="M8548 5619c32,0 64,1 97,1 -71,202 -141,405 -212,607 -34,0 -67,1 -101,1 72,-203 144,-406 216,-609z"/>
    <path class="fil3 str2" d="M8707 5709c0,39 1,78 1,117 69,31 138,63 207,94 -68,35 -136,70 -204,105 0,34 0,68 0,102 104,-51 207,-102 310,-154 3,-32 5,-64 8,-96 -108,-56 -215,-112 -322,-168z"/>
    <polygon class="fil4" points="2029,7738 2029,7168 2124,7168 2492,7616 2492,7168 2582,7168 2582,7738 2486,7738 2118,7291 2118,7738 "/>
    <path id="1" class="fil4" d="M2935 7738l0 -241 -270 -329 112 0 138 173c26,32 50,64 72,96 21,-30 47,-64 78,-101l135 -168 109 0 -281 329 0 241 -93 0z"/>
    <polygon id="2" class="fil4" points="3387,7738 3387,7168 3480,7168 3480,7451 3829,7168 3955,7168 3660,7399 3967,7738 3845,7738 3595,7451 3480,7541 3480,7738 "/>
    <path id="3" class="fil4" d="M4014 7555l88 -6c4,29 13,52 28,70 16,19 39,34 71,45 32,11 68,17 108,17 35,0 66,-4 93,-13 27,-8 48,-20 61,-35 13,-15 20,-32 20,-49 0,-18 -7,-33 -19,-47 -13,-13 -34,-24 -64,-33 -18,-6 -60,-15 -125,-28 -64,-13 -109,-25 -135,-36 -33,-14 -58,-32 -75,-53 -16,-21 -24,-45 -24,-71 0,-29 10,-56 30,-81 20,-25 49,-44 88,-57 39,-13 82,-19 129,-19 52,0 98,6 137,20 40,14 70,34 92,60 21,27 33,57 34,90l-89 6c-5,-36 -21,-63 -48,-82 -28,-18 -69,-27 -123,-27 -56,0 -97,8 -122,25 -26,16 -39,37 -39,60 0,21 9,37 27,51 18,13 65,27 140,40 76,14 127,26 156,37 40,15 70,34 90,58 19,23 29,50 29,81 0,30 -11,58 -32,85 -21,27 -52,48 -92,63 -40,15 -85,22 -135,22 -63,0 -117,-8 -159,-23 -43,-15 -77,-37 -101,-67 -25,-31 -37,-65 -39,-103z"/>
    <path id="4" class="fil4" d="M4670 7461c0,-95 31,-169 94,-222 62,-54 143,-80 242,-80 65,0 123,12 175,37 52,25 92,61 119,106 27,44 41,95 41,152 0,58 -14,110 -43,155 -29,46 -69,80 -122,104 -53,23 -110,35 -170,35 -67,0 -126,-13 -178,-39 -52,-26 -91,-61 -118,-106 -27,-45 -40,-92 -40,-142zm96 1c0,69 23,123 68,162 45,40 102,59 171,59 70,0 127,-19 172,-59 46,-40 68,-97 68,-170 0,-46 -10,-87 -29,-121 -19,-35 -47,-61 -84,-80 -38,-19 -79,-29 -126,-29 -65,0 -122,18 -169,55 -47,37 -71,98 -71,183z"/>
    <polygon id="5" class="fil4" points="5460,7738 5460,7168 5555,7168 5923,7616 5923,7168 6012,7168 6012,7738 5917,7738 5549,7291 5549,7738 "/>
    <polygon id="6" class="fil5 str3" points="2029,7738 2029,7168 2124,7168 2492,7616 2492,7168 2582,7168 2582,7738 2486,7738 2118,7291 2118,7738 "/>
    <path id="7" class="fil5 str3" d="M2935 7738l0 -241 -270 -329 112 0 138 173c26,32 50,64 72,96 21,-30 47,-64 78,-101l135 -168 109 0 -281 329 0 241 -93 0z"/>
    <polygon id="8" class="fil5 str3" points="3387,7738 3387,7168 3480,7168 3480,7451 3829,7168 3955,7168 3660,7399 3967,7738 3845,7738 3595,7451 3480,7541 3480,7738 "/>
    <path id="9" class="fil5 str3" d="M4014 7555l88 -6c4,29 13,52 28,70 16,19 39,34 71,45 32,11 68,17 108,17 35,0 66,-4 93,-13 27,-8 48,-20 61,-35 13,-15 20,-32 20,-49 0,-18 -7,-33 -19,-47 -13,-13 -34,-24 -64,-33 -18,-6 -60,-15 -125,-28 -64,-13 -109,-25 -135,-36 -33,-14 -58,-32 -75,-53 -16,-21 -24,-45 -24,-71 0,-29 10,-56 30,-81 20,-25 49,-44 88,-57 39,-13 82,-19 129,-19 52,0 98,6 137,20 40,14 70,34 92,60 21,27 33,57 34,90l-89 6c-5,-36 -21,-63 -48,-82 -28,-18 -69,-27 -123,-27 -56,0 -97,8 -122,25 -26,16 -39,37 -39,60 0,21 9,37 27,51 18,13 65,27 140,40 76,14 127,26 156,37 40,15 70,34 90,58 19,23 29,50 29,81 0,30 -11,58 -32,85 -21,27 -52,48 -92,63 -40,15 -85,22 -135,22 -63,0 -117,-8 -159,-23 -43,-15 -77,-37 -101,-67 -25,-31 -37,-65 -39,-103z"/>
    <path id="10" class="fil5 str3" d="M4670 7461c0,-95 31,-169 94,-222 62,-54 143,-80 242,-80 65,0 123,12 175,37 52,25 92,61 119,106 27,44 41,95 41,152 0,58 -14,110 -43,155 -29,46 -69,80 -122,104 -53,23 -110,35 -170,35 -67,0 -126,-13 -178,-39 -52,-26 -91,-61 -118,-106 -27,-45 -40,-92 -40,-142zm96 1c0,69 23,123 68,162 45,40 102,59 171,59 70,0 127,-19 172,-59 46,-40 68,-97 68,-170 0,-46 -10,-87 -29,-121 -19,-35 -47,-61 -84,-80 -38,-19 -79,-29 -126,-29 -65,0 -122,18 -169,55 -47,37 -71,98 -71,183z"/>
    <polygon id="11" class="fil5 str3" points="5460,7738 5460,7168 5555,7168 5923,7616 5923,7168 6012,7168 6012,7738 5917,7738 5549,7291 5549,7738 "/>
    <path class="fil6" d="M7270 7714l0 -571 322 0c65,0 114,6 148,16 33,10 60,28 81,54 20,26 30,54 30,86 0,40 -17,74 -50,102 -34,28 -85,45 -155,53 26,9 45,19 58,28 28,21 55,46 80,76l125 156 -120 0 -96 -119c-28,-34 -51,-61 -69,-79 -19,-18 -35,-31 -49,-38 -14,-7 -29,-12 -44,-15 -11,-2 -29,-3 -54,-3l-111 0 0 254 -96 0zm96 -319l207 0c44,0 78,-4 103,-11 24,-7 43,-18 56,-34 13,-16 19,-33 19,-51 0,-27 -12,-49 -37,-67 -25,-17 -64,-26 -118,-26l-230 0 0 189z"/>
    <path id="1" class="fil6" d="M8478 7143l96 0 0 330c0,57 -8,103 -24,136 -17,34 -47,61 -90,82 -43,21 -99,32 -170,32 -67,0 -123,-9 -166,-28 -44,-18 -75,-45 -93,-79 -18,-35 -28,-83 -28,-143l0 -330 97 0 0 330c0,49 6,86 17,109 12,24 32,42 61,54 28,13 63,19 104,19 71,0 121,-12 151,-37 30,-25 45,-74 45,-145l0 -330z"/>
    <polygon id="2" class="fil6" points="8920,7714 8920,7210 8680,7210 8680,7143 9256,7143 9256,7210 9016,7210 9016,7714 "/>
    <path id="3" class="fil6" d="M9561 7714l0 -242 -281 -329 116 0 144 173c27,32 51,64 74,96 22,-30 49,-63 81,-101l140 -168 113 0 -291 329 0 242 -96 0z"/>
    <polygon id="4" class="fil6" points="10035,7714 10035,7143 10561,7143 10561,7210 10132,7210 10132,7385 10533,7385 10533,7452 10132,7452 10132,7647 10578,7647 10578,7714 "/>
    <polygon id="5" class="fil6" points="10707,7714 10707,7143 10803,7143 10803,7647 11161,7647 11161,7714 "/>
    <polygon id="6" class="fil6" points="11272,7714 11272,7143 11368,7143 11368,7647 11726,7647 11726,7714 "/>
    <path id="7" class="fil6" d="M11971 7714l0 -242 -281 -329 116 0 144 173c27,32 51,64 74,96 22,-30 49,-63 81,-101l140 -168 113 0 -291 329 0 242 -96 0z"/>
    <path id="8" class="fil5 str4" d="M7270 7714l0 -571 322 0c65,0 114,6 148,16 33,10 60,28 81,54 20,26 30,54 30,86 0,40 -17,74 -50,102 -34,28 -85,45 -155,53 26,9 45,19 58,28 28,21 55,46 80,76l125 156 -120 0 -96 -119c-28,-34 -51,-61 -69,-79 -19,-18 -35,-31 -49,-38 -14,-7 -29,-12 -44,-15 -11,-2 -29,-3 -54,-3l-111 0 0 254 -96 0zm96 -319l207 0c44,0 78,-4 103,-11 24,-7 43,-18 56,-34 13,-16 19,-33 19,-51 0,-27 -12,-49 -37,-67 -25,-17 -64,-26 -118,-26l-230 0 0 189z"/>
    <path id="9" class="fil5 str4" d="M8478 7143l96 0 0 330c0,57 -8,103 -24,136 -17,34 -47,61 -90,82 -43,21 -99,32 -170,32 -67,0 -123,-9 -166,-28 -44,-18 -75,-45 -93,-79 -18,-35 -28,-83 -28,-143l0 -330 97 0 0 330c0,49 6,86 17,109 12,24 32,42 61,54 28,13 63,19 104,19 71,0 121,-12 151,-37 30,-25 45,-74 45,-145l0 -330z"/>
    <polygon id="10" class="fil5 str4" points="8920,7714 8920,7210 8680,7210 8680,7143 9256,7143 9256,7210 9016,7210 9016,7714 "/>
    <path id="11" class="fil5 str4" d="M9561 7714l0 -242 -281 -329 116 0 144 173c27,32 51,64 74,96 22,-30 49,-63 81,-101l140 -168 113 0 -291 329 0 242 -96 0z"/>
    <polygon id="12" class="fil5 str4" points="10035,7714 10035,7143 10561,7143 10561,7210 10132,7210 10132,7385 10533,7385 10533,7452 10132,7452 10132,7647 10578,7647 10578,7714 "/>
    <polygon id="13" class="fil5 str4" points="10707,7714 10707,7143 10803,7143 10803,7647 11161,7647 11161,7714 "/>
    <polygon id="14" class="fil5 str4" points="11272,7714 11272,7143 11368,7143 11368,7647 11726,7647 11726,7714 "/>
    <path id="15" class="fil5 str4" d="M11971 7714l0 -242 -281 -329 116 0 144 173c27,32 51,64 74,96 22,-30 49,-63 81,-101l140 -168 113 0 -291 329 0 242 -96 0z"/>
    <path class="fil7 str5" d="M2567 8395c362,0 724,0 905,0 181,0 181,0 181,0 0,0 0,0 0,0"/>
    <path class="fil7 str5" d="M11919 8395c-360,0 -721,0 -1081,0"/>
    <path class="fil4" d="M3913 8479l46 -4c2,17 7,32 15,44 8,11 20,20 37,27 17,7 36,11 56,11 19,0 35,-3 49,-9 15,-5 25,-12 32,-22 7,-9 10,-19 10,-30 0,-12 -3,-21 -10,-30 -6,-8 -17,-15 -33,-20 -9,-4 -31,-10 -65,-17 -34,-8 -57,-15 -71,-22 -17,-9 -30,-20 -39,-33 -8,-14 -13,-28 -13,-45 0,-18 6,-35 16,-50 11,-16 26,-28 46,-36 20,-8 43,-13 67,-13 28,0 52,4 72,13 21,8 37,21 48,37 11,17 17,35 18,56l-46 4c-3,-23 -11,-40 -26,-51 -14,-11 -35,-17 -64,-17 -29,0 -51,6 -64,16 -13,11 -20,23 -20,38 0,13 5,23 14,31 10,9 34,17 73,26 40,8 67,16 82,22 21,9 37,21 47,36 10,15 15,31 15,50 0,19 -5,37 -17,54 -11,17 -27,30 -48,39 -21,10 -44,14 -70,15 -34,0 -61,-5 -84,-14 -22,-10 -40,-24 -52,-42 -13,-19 -20,-40 -21,-64z"/>
    <polygon id="1" class="fil4" points="4279,8592 4279,8235 4328,8235 4328,8591 "/>
    <path id="2" class="fil4" d="M4398 8477l45 -5c2,18 7,33 15,45 8,11 21,20 37,27 17,7 36,11 57,11 18,0 34,-3 49,-9 14,-5 24,-13 31,-22 7,-9 11,-20 11,-31 0,-11 -4,-20 -10,-29 -7,-8 -18,-15 -33,-21 -10,-3 -32,-9 -66,-17 -33,-7 -57,-15 -71,-22 -17,-8 -30,-19 -39,-33 -8,-13 -12,-28 -12,-44 0,-18 5,-35 15,-50 11,-16 26,-28 46,-36 21,-9 43,-13 68,-13 27,0 51,4 72,13 20,8 36,20 48,37 11,16 17,35 18,56l-47 4c-3,-23 -11,-40 -25,-51 -15,-12 -36,-17 -64,-17 -30,0 -51,5 -65,16 -13,10 -20,23 -20,38 0,13 5,23 14,31 10,9 34,17 74,25 39,9 66,16 81,23 21,9 37,21 47,36 10,14 15,31 15,50 0,19 -5,37 -16,54 -12,17 -28,30 -49,39 -20,10 -44,14 -70,14 -33,1 -61,-4 -83,-13 -23,-10 -40,-24 -53,-43 -13,-18 -20,-40 -20,-63z"/>
    <polygon id="3" class="fil4" points="4849,8589 4849,8275 4728,8275 4728,8233 5018,8232 5018,8274 4897,8274 4897,8589 "/>
    <polygon id="4" class="fil4" points="5069,8588 5069,8232 5334,8231 5334,8272 5118,8273 5118,8383 5321,8382 5321,8424 5118,8425 5118,8546 5343,8545 5343,8587 "/>
    <path id="5" class="fil4" d="M5409 8587l0 -357 73 0 87 252c8,23 14,41 17,53 5,-13 11,-32 20,-58l88 -248 65 0 0 356 -46 0 0 -298 -107 299 -44 0 -106 -303 0 303 -47 1z"/>
    <path id="6" class="fil4" d="M5797 8585l141 -357 53 0 150 355 -56 1 -42 -108 -155 1 -39 108 -52 0zm106 -147l125 0 -39 -99c-11,-30 -20,-55 -26,-74 -5,23 -12,46 -20,68l-40 105z"/>
    <path id="7" class="fil4" d="M6163 8469l46 -4c2,18 7,32 15,44 8,11 20,20 37,28 16,6 35,10 56,10 19,0 35,-3 49,-8 14,-6 25,-13 32,-23 7,-9 10,-19 10,-30 0,-11 -3,-21 -10,-29 -6,-9 -18,-16 -33,-21 -10,-4 -31,-10 -65,-17 -34,-8 -58,-15 -71,-22 -18,-9 -31,-20 -39,-33 -9,-13 -13,-28 -13,-45 0,-18 5,-35 16,-50 10,-16 26,-28 46,-36 20,-8 42,-12 67,-13 27,0 51,4 72,13 21,8 37,21 48,37 11,17 17,35 18,56l-47 4c-2,-22 -11,-39 -25,-51 -14,-11 -36,-17 -64,-17 -29,0 -51,6 -64,16 -14,11 -20,23 -20,38 0,13 4,23 14,32 9,8 34,16 73,25 40,8 67,16 81,22 22,10 37,22 48,36 10,15 15,32 15,51 0,19 -6,36 -17,53 -11,17 -27,30 -48,39 -21,10 -44,15 -71,15 -33,0 -61,-5 -83,-14 -22,-9 -40,-23 -53,-42 -12,-19 -19,-40 -20,-64z"/>
    <path id="8" class="fil4" d="M6663 8581l0 -356 139 -1c24,0 43,1 56,3 18,3 33,9 45,17 12,8 22,19 30,34 7,15 11,31 11,49 0,30 -10,55 -30,76 -20,21 -56,32 -108,32l-94 1 0 145 -49 0zm49 -187l95 -1c31,0 53,-5 67,-17 13,-11 19,-27 19,-48 0,-15 -3,-27 -11,-38 -8,-11 -18,-18 -31,-21 -8,-2 -23,-3 -45,-3l-94 0 0 128z"/>
    <path id="9" class="fil4" d="M6927 8580l141 -357 53 0 149 356 -55 0 -42 -108 -155 1 -40 108 -51 0zm105 -147l126 0 -39 -99c-11,-30 -20,-55 -26,-74 -5,23 -12,46 -20,69l-41 104z"/>
    <path id="10" class="fil4" d="M7310 8578l0 -356 163 -1c32,0 57,3 74,10 17,6 31,17 41,33 10,16 15,34 15,54 0,25 -8,47 -25,64 -17,17 -43,28 -78,33 13,6 23,12 29,18 14,12 28,28 40,47l64 97 -61 0 -48 -74c-14,-21 -26,-37 -35,-49 -10,-11 -18,-19 -25,-23 -7,-5 -15,-8 -22,-10 -6,-1 -15,-1 -27,-1l-56 0 0 158 -49 0zm49 -199l104 0c22,0 39,-3 52,-7 12,-5 22,-12 28,-22 7,-10 10,-20 10,-32 0,-17 -6,-31 -19,-41 -12,-11 -32,-16 -59,-16l-116 0 0 118z"/>
    <path id="11" class="fil4" d="M7639 8577l141 -357 53 0 149 355 -55 1 -42 -108 -155 1 -40 108 -51 0zm105 -147l125 0 -38 -99c-11,-30 -20,-55 -26,-74 -5,23 -12,46 -20,68l-41 105z"/>
    <polygon id="12" class="fil4" points="8143,8575 8143,8218 8192,8218 8192,8575 "/>
    <polygon id="13" class="fil4" points="8277,8574 8277,8218 8327,8218 8519,8496 8519,8217 8566,8217 8566,8573 8516,8573 8324,8294 8324,8574 "/>
    <polygon id="14" class="fil4" points="8741,8572 8741,8258 8620,8258 8620,8216 8910,8215 8910,8257 8790,8257 8790,8572 "/>
    <polygon id="15" class="fil4" points="8962,8571 8962,8215 9227,8214 9227,8255 9010,8256 9010,8366 9213,8365 9213,8407 9010,8408 9010,8529 9235,8528 9235,8570 "/>
    <path id="16" class="fil4" d="M9303 8570l0 -357 163 0c33,0 58,3 75,9 17,6 30,17 40,34 11,16 16,34 16,53 0,26 -9,47 -26,64 -16,18 -42,29 -78,34 13,6 23,11 30,17 14,13 27,29 40,48l63 96 -60 1 -49 -74c-14,-22 -26,-38 -35,-49 -9,-12 -17,-20 -25,-24 -7,-5 -14,-8 -22,-9 -5,-2 -14,-2 -27,-2l-56 0 0 158 -49 1zm49 -200l104 0c23,0 40,-2 52,-7 13,-4 22,-12 29,-22 6,-9 9,-20 9,-31 0,-17 -6,-31 -18,-42 -13,-11 -33,-16 -60,-16l-116 0 0 118z"/>
    <polygon id="17" class="fil4" points="9672,8568 9672,8212 9722,8212 9914,8490 9914,8211 9961,8210 9961,8567 9911,8567 9719,8288 9719,8568 "/>
    <polygon id="18" class="fil4" points="10044,8566 10044,8210 10309,8209 10309,8251 10092,8252 10092,8361 10295,8360 10295,8402 10092,8403 10092,8524 10317,8523 10317,8565 "/>
    <polygon id="19" class="fil4" points="10478,8565 10478,8250 10357,8251 10357,8209 10647,8207 10647,8249 10527,8250 10527,8564 "/>
    <path id="20" class="fil5 str3" d="M3913 8479l46 -4c2,17 7,32 15,44 8,11 20,20 37,27 17,7 36,11 56,11 19,0 35,-3 49,-9 15,-5 25,-12 32,-22 7,-9 10,-19 10,-30 0,-12 -3,-21 -10,-30 -6,-8 -17,-15 -33,-20 -9,-4 -31,-10 -65,-17 -34,-8 -57,-15 -71,-22 -17,-9 -30,-20 -39,-33 -8,-14 -13,-28 -13,-45 0,-18 6,-35 16,-50 11,-16 26,-28 46,-36 20,-8 43,-13 67,-13 28,0 52,4 72,13 21,8 37,21 48,37 11,17 17,35 18,56l-46 4c-3,-23 -11,-40 -26,-51 -14,-11 -35,-17 -64,-17 -29,0 -51,6 -64,16 -13,11 -20,23 -20,38 0,13 5,23 14,31 10,9 34,17 73,26 40,8 67,16 82,22 21,9 37,21 47,36 10,15 15,31 15,50 0,19 -5,37 -17,54 -11,17 -27,30 -48,39 -21,10 -44,14 -70,15 -34,0 -61,-5 -84,-14 -22,-10 -40,-24 -52,-42 -13,-19 -20,-40 -21,-64z"/>
    <polygon id="21" class="fil5 str3" points="4279,8592 4279,8235 4328,8235 4328,8591 "/>
    <path id="22" class="fil5 str3" d="M4398 8477l45 -5c2,18 7,33 15,45 8,11 21,20 37,27 17,7 36,11 57,11 18,0 34,-3 49,-9 14,-5 24,-13 31,-22 7,-9 11,-20 11,-31 0,-11 -4,-20 -10,-29 -7,-8 -18,-15 -33,-21 -10,-3 -32,-9 -66,-17 -33,-7 -57,-15 -71,-22 -17,-8 -30,-19 -39,-33 -8,-13 -12,-28 -12,-44 0,-18 5,-35 15,-50 11,-16 26,-28 46,-36 21,-9 43,-13 68,-13 27,0 51,4 72,13 20,8 36,20 48,37 11,16 17,35 18,56l-47 4c-3,-23 -11,-40 -25,-51 -15,-12 -36,-17 -64,-17 -30,0 -51,5 -65,16 -13,10 -20,23 -20,38 0,13 5,23 14,31 10,9 34,17 74,25 39,9 66,16 81,23 21,9 37,21 47,36 10,14 15,31 15,50 0,19 -5,37 -16,54 -12,17 -28,30 -49,39 -20,10 -44,14 -70,14 -33,1 -61,-4 -83,-13 -23,-10 -40,-24 -53,-43 -13,-18 -20,-40 -20,-63z"/>
    <polygon id="23" class="fil5 str3" points="4849,8589 4849,8275 4728,8275 4728,8233 5018,8232 5018,8274 4897,8274 4897,8589 "/>
    <polygon id="24" class="fil5 str3" points="5069,8588 5069,8232 5334,8231 5334,8272 5118,8273 5118,8383 5321,8382 5321,8424 5118,8425 5118,8546 5343,8545 5343,8587 "/>
    <path id="25" class="fil5 str3" d="M5409 8587l0 -357 73 0 87 252c8,23 14,41 17,53 5,-13 11,-32 20,-58l88 -248 65 0 0 356 -46 0 0 -298 -107 299 -44 0 -106 -303 0 303 -47 1z"/>
    <path id="26" class="fil5 str3" d="M5797 8585l141 -357 53 0 150 355 -56 1 -42 -108 -155 1 -39 108 -52 0zm106 -147l125 0 -39 -99c-11,-30 -20,-55 -26,-74 -5,23 -12,46 -20,68l-40 105z"/>
    <path id="27" class="fil5 str3" d="M6163 8469l46 -4c2,18 7,32 15,44 8,11 20,20 37,28 16,6 35,10 56,10 19,0 35,-3 49,-8 14,-6 25,-13 32,-23 7,-9 10,-19 10,-30 0,-11 -3,-21 -10,-29 -6,-9 -18,-16 -33,-21 -10,-4 -31,-10 -65,-17 -34,-8 -58,-15 -71,-22 -18,-9 -31,-20 -39,-33 -9,-13 -13,-28 -13,-45 0,-18 5,-35 16,-50 10,-16 26,-28 46,-36 20,-8 42,-12 67,-13 27,0 51,4 72,13 21,8 37,21 48,37 11,17 17,35 18,56l-47 4c-2,-22 -11,-39 -25,-51 -14,-11 -36,-17 -64,-17 -29,0 -51,6 -64,16 -14,11 -20,23 -20,38 0,13 4,23 14,32 9,8 34,16 73,25 40,8 67,16 81,22 22,10 37,22 48,36 10,15 15,32 15,51 0,19 -6,36 -17,53 -11,17 -27,30 -48,39 -21,10 -44,15 -71,15 -33,0 -61,-5 -83,-14 -22,-9 -40,-23 -53,-42 -12,-19 -19,-40 -20,-64z"/>
    <path id="28" class="fil5 str3" d="M6663 8581l0 -356 139 -1c24,0 43,1 56,3 18,3 33,9 45,17 12,8 22,19 30,34 7,15 11,31 11,49 0,30 -10,55 -30,76 -20,21 -56,32 -108,32l-94 1 0 145 -49 0zm49 -187l95 -1c31,0 53,-5 67,-17 13,-11 19,-27 19,-48 0,-15 -3,-27 -11,-38 -8,-11 -18,-18 -31,-21 -8,-2 -23,-3 -45,-3l-94 0 0 128z"/>
    <path id="29" class="fil5 str3" d="M6927 8580l141 -357 53 0 149 356 -55 0 -42 -108 -155 1 -40 108 -51 0zm105 -147l126 0 -39 -99c-11,-30 -20,-55 -26,-74 -5,23 -12,46 -20,69l-41 104z"/>
    <path id="30" class="fil5 str3" d="M7310 8578l0 -356 163 -1c32,0 57,3 74,10 17,6 31,17 41,33 10,16 15,34 15,54 0,25 -8,47 -25,64 -17,17 -43,28 -78,33 13,6 23,12 29,18 14,12 28,28 40,47l64 97 -61 0 -48 -74c-14,-21 -26,-37 -35,-49 -10,-11 -18,-19 -25,-23 -7,-5 -15,-8 -22,-10 -6,-1 -15,-1 -27,-1l-56 0 0 158 -49 0zm49 -199l104 0c22,0 39,-3 52,-7 12,-5 22,-12 28,-22 7,-10 10,-20 10,-32 0,-17 -6,-31 -19,-41 -12,-11 -32,-16 -59,-16l-116 0 0 118z"/>
    <path id="31" class="fil5 str3" d="M7639 8577l141 -357 53 0 149 355 -55 1 -42 -108 -155 1 -40 108 -51 0zm105 -147l125 0 -38 -99c-11,-30 -20,-55 -26,-74 -5,23 -12,46 -20,68l-41 105z"/>
    <polygon id="32" class="fil5 str3" points="8143,8575 8143,8218 8192,8218 8192,8575 "/>
    <polygon id="33" class="fil5 str3" points="8277,8574 8277,8218 8327,8218 8519,8496 8519,8217 8566,8217 8566,8573 8516,8573 8324,8294 8324,8574 "/>
    <polygon id="34" class="fil5 str3" points="8741,8572 8741,8258 8620,8258 8620,8216 8910,8215 8910,8257 8790,8257 8790,8572 "/>
    <polygon id="35" class="fil5 str3" points="8962,8571 8962,8215 9227,8214 9227,8255 9010,8256 9010,8366 9213,8365 9213,8407 9010,8408 9010,8529 9235,8528 9235,8570 "/>
    <path id="36" class="fil5 str3" d="M9303 8570l0 -357 163 0c33,0 58,3 75,9 17,6 30,17 40,34 11,16 16,34 16,53 0,26 -9,47 -26,64 -16,18 -42,29 -78,34 13,6 23,11 30,17 14,13 27,29 40,48l63 96 -60 1 -49 -74c-14,-22 -26,-38 -35,-49 -9,-12 -17,-20 -25,-24 -7,-5 -14,-8 -22,-9 -5,-2 -14,-2 -27,-2l-56 0 0 158 -49 1zm49 -200l104 0c23,0 40,-2 52,-7 13,-4 22,-12 29,-22 6,-9 9,-20 9,-31 0,-17 -6,-31 -18,-42 -13,-11 -33,-16 -60,-16l-116 0 0 118z"/>
    <polygon id="37" class="fil5 str3" points="9672,8568 9672,8212 9722,8212 9914,8490 9914,8211 9961,8210 9961,8567 9911,8567 9719,8288 9719,8568 "/>
    <polygon id="38" class="fil5 str3" points="10044,8566 10044,8210 10309,8209 10309,8251 10092,8252 10092,8361 10295,8360 10295,8402 10092,8403 10092,8524 10317,8523 10317,8565 "/>
    <polygon id="39" class="fil5 str3" points="10478,8565 10478,8250 10357,8251 10357,8209 10647,8207 10647,8249 10527,8250 10527,8564 "/>
   </g>
  </g>
 </g>
</svg>
