<?xml version="1.0" encoding="UTF-8"?>
<!DOCTYPE svg PUBLIC "-//W3C//DTD SVG 1.1//EN" "http://www.w3.org/Graphics/SVG/1.1/DTD/svg11.dtd">
<!-- Creator: CorelDRAW 2026 -->
<svg xmlns="http://www.w3.org/2000/svg" xml:space="preserve" width="33px" height="32px" version="1.1" style="shape-rendering:geometricPrecision; text-rendering:geometricPrecision; image-rendering:optimizeQuality; fill-rule:evenodd; clip-rule:evenodd"
viewBox="0 0 33 32.18"
 xmlns:xlink="http://www.w3.org/1999/xlink"
 xmlns:xodm="http://www.corel.com/coreldraw/odm/2003">
 <defs>
  <style type="text/css">
   <![CDATA[
    .fil0 {fill:#24292E;fill-rule:nonzero}
   ]]>
  </style>
 </defs>
 <g id="Camada_x0020_1">
  <metadata id="CorelCorpID_0Corel-Layer"/>
  <path class="fil0" d="M16.5 0c-9.12,0 -16.5,7.39 -16.5,16.5 0,7.29 4.73,13.47 11.28,15.65 0.83,0.16 1.13,-0.35 1.13,-0.79 0,-0.39 -0.01,-1.43 -0.02,-2.8 -4.59,0.99 -5.56,-2.22 -5.56,-2.22 -0.75,-1.9 -1.83,-2.41 -1.83,-2.41 -1.5,-1.02 0.11,-1 0.11,-1 1.66,0.11 2.53,1.7 2.53,1.7 1.47,2.52 3.86,1.79 4.8,1.37 0.15,-1.07 0.58,-1.8 1.05,-2.21 -3.67,-0.41 -7.52,-1.83 -7.52,-8.15 0,-1.8 0.64,-3.28 1.7,-4.43 -0.18,-0.42 -0.74,-2.09 0.15,-4.37 0,0 1.38,-0.44 4.53,1.69 1.32,-0.36 2.73,-0.55 4.13,-0.55 1.4,0 2.8,0.19 4.12,0.55 3.14,-2.13 4.52,-1.69 4.52,-1.69 0.89,2.28 0.33,3.95 0.17,4.37 1.05,1.15 1.69,2.63 1.69,4.43 0,6.34 -3.86,7.73 -7.53,8.14 0.58,0.49 1.11,1.5 1.11,3.05 0,2.21 -0.02,3.98 -0.02,4.52 0,0.43 0.29,0.95 1.14,0.78 6.6,-2.16 11.32,-8.35 11.32,-15.63 0,-9.11 -7.39,-16.5 -16.5,-16.5l0 0z"/>
 </g>
</svg>
