<?xml version="1.0" encoding="UTF-8"?>
<!DOCTYPE svg PUBLIC "-//W3C//DTD SVG 1.1//EN" "http://www.w3.org/Graphics/SVG/1.1/DTD/svg11.dtd">
<!-- Creator: CorelDRAW 2026 -->
<svg xmlns="http://www.w3.org/2000/svg" xml:space="preserve" width="32px" height="32px" version="1.1" style="shape-rendering:geometricPrecision; text-rendering:geometricPrecision; image-rendering:optimizeQuality; fill-rule:evenodd; clip-rule:evenodd"
viewBox="0 0 31.13 31.13"
 xmlns:xlink="http://www.w3.org/1999/xlink"
 xmlns:xodm="http://www.corel.com/coreldraw/odm/2003">
 <defs>
  <style type="text/css">
   <![CDATA[
    .fil0 {fill:#006699;fill-rule:nonzero}
    .fil1 {fill:white;fill-rule:nonzero}
   ]]>
  </style>
 </defs>
 <g id="Camada_x0020_1">
  <metadata id="CorelCorpID_0Corel-Layer"/>
  <g id="_2119869238784">
   <path class="fil0" d="M0 2.23c0,-1.23 1.03,-2.23 2.3,-2.23l26.53 0c1.27,0 2.3,1 2.3,2.23l0 26.67c0,1.23 -1.03,2.23 -2.3,2.23l-26.53 0c-1.27,0 -2.3,-1 -2.3,-2.23l0 -26.67z"/>
   <path class="fil1" d="M7.09 10.08c1.63,0 2.66,-1.08 2.66,-2.43 -0.03,-1.37 -1.03,-2.42 -2.63,-2.42 -1.61,0 -2.66,1.05 -2.66,2.42 0,1.35 1.02,2.43 2.6,2.43l0.03 0 0 0z"/>
   <polygon class="fil1" points="9.44,26.06 9.44,12 4.73,12 4.73,26.06 "/>
   <path class="fil1" d="M12.04 26.06l4.7 0 0 -7.85c0,-0.42 0.03,-0.84 0.15,-1.14 0.34,-0.84 1.12,-1.71 2.42,-1.71 1.7,0 2.38,1.29 2.38,3.18l0 7.52 4.7 0 0 -8.06c0,-4.32 -2.32,-6.33 -5.41,-6.33 -2.54,0 -3.65,1.41 -4.27,2.37l0.03 0 0 -2.04 -4.7 0c0.06,1.32 0,14.06 0,14.06l0 0z"/>
  </g>
 </g>
</svg>
